<svg xmlns="http://www.w3.org/2000/svg" width="535" height="642" viewBox="0 0 535 642" fill="none">
  <path d="M153.9 6.19997C141.1 12.7 138.7 14.2 131 20.2C121.5 27.7 110.8 39.7 104 50.5C99.2004 58.1 92.3004 72.8 91.1004 78C90.8004 79.4 89.8004 83.4 89.0004 87C88.0004 91.1 87.5004 98.6 87.4004 107.6C87.4004 131 92.8004 151 104.1 168.9C106 171.8 107.75 176 107.75 176C107.75 176 99.4004 167.8 94.0004 160.1C79.5004 139.5 72.1004 118.1 72.0004 96.5C71.9004 83 73.5335 76.4684 77.2525 61.7C77.5578 60.4875 79.6004 55 79.6004 55C79.6004 55 74.9434 58.9299 72.2004 61.7C57.7805 76.2617 50.4004 92.4 47.5004 108C46.8004 111.6 45.8004 116.4 45.3004 118.7C44.8004 121 44.4004 130 44.4004 138.7C44.4004 157.7 47.0004 171.1 53.2004 184.2C56.9004 192.3 64.7004 205.1 67.5004 208C68.3004 208.8 71.1004 212.1 73.8004 215.3C83.1004 226.3 102.3 240 120.7 248.8C139.9 258 149.1 262 150.7 262C151.4 262 152.6 260.3 153.3 258.2C154.5 254.6 155.7 251.7 159.1 244.2C160 242.2 162.7 237.5 165.1 233.9C167.5 230.3 169.4 227 169.4 226.7C169.4 226.5 167.5 224.3 165.1 221.9C140.3 196.4 123.9 166.8 118.5 137.4C116.9 128.6 117.1 96.3 118.9 86C124.4 54 133.841 36.35 153.6 10.7C156.917 6.39436 162.5 0 162.5 0C162.5 0 157.2 4.49997 153.9 6.19997ZM69 156C74.4092 167.448 77.6576 173.884 85 184.2C96.7217 200.668 106.762 207.415 121.5 220.9C126.282 225.275 134.1 231.7 134.1 231.7C134.1 231.7 118.424 221.488 107.75 212.5C86.531 194.632 76.9749 183.701 67.5 159.5C64.1696 150.993 61.1004 137 61.1004 137C61.1004 137 65.5671 148.734 69 156Z" fill="url(#paint0_linear_194_1010)"/>
  <path d="M382.1 7.79996C401.453 30.2546 413.5 51.7999 417.4 74.9999C422.7 106.2 424.065 118.762 417.5 145.5C412.065 167.64 404.4 182.4 392.6 198.3C388.2 204.2 378.9 214.3 370.5 222.4C346.8 245.3 334.5 258 332.8 261.2C331.9 262.9 330.4 265.1 329.5 266.1C327.4 268.4 320.2 282.9 317.6 290C315.8 295 314.6 299.5 312.9 307.3C311.6 313.6 310.7 328.8 311.4 333C312.1 337.4 312.2 337.4 312.3 331.1C312.3 327.5 312.8 323.3 313.4 321.6C313.9 319.9 315 315.4 315.9 311.7C318 302.3 322 294.4 331.5 280.5C334.3 276.4 337 272.7 337.5 272.4C338 272.1 339.6 270 341 267.8C344.7 262.1 366.1 240.3 376.8 231.5C381.8 227.4 392.4 219.6 400.4 214.2C426.4 196.7 436 188.6 445.2 176.5C447.7 173.2 451 168.9 452.5 167C454 165.1 456.6 161 458.2 158C459.8 155 462 150.9 463.1 149C465.5 144.7 470.8 130.4 472.3 123.7C474.5 114.2 474.8 102 472.9 93.0999C472 88.3999 470.8 83.7 470.4 82.5999C470 81.3999 469.1 78.7 468.4 76.4999C467.8 74.2 466.3 71.2999 465.2 69.9999C463.6 67.8999 463.3 67.7999 463.9 69.4999C466.4 76.9999 467.6 88.3999 467.1 101C466.7 112.8 466.3 115.7 463.5 123.8C460.5 132.6 456.2 141.5 452.2 147.2C451.2 148.6 450.4 150.1 450.4 150.5C450.4 150.9 447.7 155.1 444.5 159.8C438.3 168.8 432.9 174.8 431.8 173.8C431.2 173.1 432.5 170.7 437.9 162C441.9 155.7 447.8 138.5 450 126.6C452.5 113.8 451.5 89.2999 447.9 77.4999C441.1 54.7 428.637 35.2745 405.9 18.3999C395.852 10.9422 377.8 2.99994 377.8 2.99994C377.8 2.99994 380.457 5.89359 382.1 7.79996Z" fill="url(#paint1_linear_194_1010)"/>
  <path d="M306.001 54.5C304.861 57.877 303.701 58.6 301.101 62.2C297.701 66.8 285.701 74.3 277.901 76.7C274.101 77.9 267.501 79.4 263.401 80C241.201 83.5 234.401 86.1 227.101 93.9C222.801 98.5 220.501 104.5 220.401 111.3C220.301 112.5 219.701 114.6 219.001 115.9C218.301 117.2 217.701 119.9 218.001 121C218.501 122.9 216.901 125 215.201 125C214.701 125 214.601 124 215.001 122.7C215.205 121.95 217.548 119.876 218.501 118.5C218.922 117.892 219.001 115.9 219.001 115.9C219.001 115.9 214.273 121.73 212.901 123C206.701 128.7 204.701 137.8 208.001 145.6L209.601 149.4L211.401 145.7C214.201 140.1 218.401 137 227.301 134.1C231.901 132.6 250.901 132.7 255.301 134.2C273.701 140.5 276.701 158.8 261.901 174.2C255.901 180.4 248.901 185.6 232.801 195.4C211.601 208.4 210.601 209.1 200.301 218.3C179.701 236.7 168.601 259 166.701 286C165.901 296.3 167.501 304.5 167.501 304.5C167.501 304.5 168.701 301.5 169.401 299C170.101 296.5 171.101 294.1 171.601 293.6C172.001 293 172.401 292 172.401 291.2C172.401 289.5 182.701 268.9 185.401 265C186.501 263.4 187.401 261.9 187.401 261.5C187.401 260.6 192.701 252.9 198.301 245.6C203.901 238.3 225.301 218 225.301 218C225.301 218 226.601 219.3 223.901 222.2C221.501 224.8 216.401 231.7 208.401 243.2C203.601 250.1 194.101 267.8 191.901 274C186.001 290.5 183.301 311.9 185.301 326.3C187.201 340.7 189.201 349.5 192.101 356.8C205.001 389.1 227.901 413.6 256.801 425.9C264.21 429.066 269.464 429.668 269.464 429.668C269.464 429.668 267.579 427.754 266.401 426.5C255.397 414.787 242.501 397.9 242.501 393C242.501 391.4 244.901 393 246.101 395C250.101 401.3 280.501 419.4 292.401 422.5C293.801 422.8 296.501 423.6 298.401 424.1C312.801 427.9 332.701 428.5 342.501 426L351.001 423.5L339.501 424C333.101 423.9 327.301 424.1 315.601 421.3C314.401 421 313.101 420.4 312.801 419.9C312.501 419.4 311.601 419 310.701 419C306.501 419 282.301 405.3 273.901 398.1C272.201 396.7 269.601 394.6 268.001 393.5C262.401 389.5 245.901 370.2 238.501 359C222.001 334.2 215.501 315.4 215.401 292.9C215.401 268.3 224.1 241.1 241.5 218C248.3 208.9 262.701 195.5 262.701 195.5L257.501 205C257.501 205 252.301 213.1 247.101 222C237.401 238.8 232.201 252.7 228.301 272.5C226.701 280.4 226.701 304.1 228.301 311C230.801 322.5 231.701 325.7 233.601 331.5C236.201 339 240.101 345.6 240.101 345.6C240.101 345.6 239.578 342.985 239.301 341.3C236.836 326.346 240.101 302.5 240.101 302.5C240.101 302.5 241.414 308.029 242.501 311.5C246.801 325.234 251.318 332.325 259.301 344.3C275.162 368.093 294.601 384.7 312.701 394.4C316.401 396.4 319.401 397 319.401 397C319.401 397 315.712 394.191 313.501 392.5C306.584 387.209 305.001 383.8 298.501 376.5C291.101 368.1 278.001 348.4 272.201 336.9C262.201 316.7 258.401 300.7 258.401 278C258.401 261.3 260.001 250.7 264.501 237.6C267.701 228.5 276.001 210.4 281.001 202C285.001 195.1 287.101 191.1 290.201 184C296.701 169.1 297.001 152.9 297.001 152.9L297.251 143C297.251 143 298.401 146 298.401 147C298.401 148 298.901 149.2 299.401 149.5C300.601 150.3 300.701 172.6 299.501 176.6C299.001 178.2 298.001 181.5 297.301 184C296.601 186.5 294.801 191.3 293.201 194.8C291.701 198.2 290.401 201.3 290.401 201.6C290.401 201.8 288.901 205.3 287.001 209.3C274.201 236.5 271.901 245.8 271.901 269C272.001 284.8 272.701 289.3 277.401 304.1C279.701 311.2 292.5 336 293.5 337.5C293 336.5 289.201 324.8 288.601 320.8C286.301 306.1 285.201 278.7 286.401 266.3C288.201 246.5 290.701 237 298.601 220C310.601 194.2 314.701 181.9 316.001 167.2C316.43 162.797 316.501 158 316.501 158C316.501 158 319.182 161.997 320.201 165.1C322.101 171 322.401 194.6 320.601 202C318.701 209.5 315.601 217.9 313.301 221.6C311.201 225.1 310.901 226.4 312.501 225.4C314.001 224.5 325.501 206.6 327.801 201.7C328.701 199.7 330.701 194.3 332.201 189.7C334.501 182.6 334.801 179.8 334.901 169C334.901 158.4 334.501 155.5 332.501 150C330.001 143 327.042 135.949 322.001 127.5C321.241 126.226 320.001 124.4 320.001 124.4C320.001 124.4 323.407 125.813 325.501 126.9C327.302 127.835 330 129.5 330 129.5C330 129.5 325.264 125.065 322 122.5C313.537 115.85 307.925 113.638 298.201 108.6C296.027 107.474 292.635 105.717 292.635 105.717C292.635 105.717 301.429 105.009 306.901 103.7C314.209 101.951 321.201 101.1 324.901 96.9L326.901 94.7L324.901 95.4C319.401 97.6 315.643 97.6682 309.601 97.7C305.047 97.7239 298.001 96.5 298.001 96.5L305.001 94.5C305.001 94.5 323.546 91.1038 331.901 83.4C335.703 79.8939 340.101 73 340.101 73C340.101 73 337.141 74.5781 335.201 75.5C327.66 79.0827 323.262 81.296 315.001 82.5C310.553 83.1483 308.006 83.3288 303.501 83.5C299.989 83.6335 294.501 83.5 294.501 83.5C294.501 83.5 298.563 79.8457 300.701 77.1C306.847 69.2046 312.461 62.5265 309.401 53C308.734 50.9246 307.001 47.9601 307.001 47.9601C307.001 47.9601 306.828 52.0522 306.001 54.5ZM276.401 88C276.401 88 267.801 95.8 256.901 99C249.258 101.357 247.001 102.171 247.001 102.171C247.001 102.171 248.677 102.901 249.201 103.3C252.345 105.697 251.001 113 246.301 113C243.801 113 242.023 111.76 241.501 109.5C241.323 108.73 242.907 106.736 244.383 105.5C245.969 104.173 247.319 104.159 249.201 103.3C249.123 103.183 249.001 103 249.001 103L247.001 102.171C247.001 102.171 242.682 103.701 240.001 106C235.993 109.437 233.545 114.746 231.301 117.5C229.633 119.546 227.154 122.839 227.154 122.839C227.154 122.839 226.386 122.008 226.001 121.4C223.387 117.277 227.237 113.725 229.501 109.4C235.572 97.7987 253.001 94.5 253.001 94.5C253.001 94.5 263.658 91.3097 267.001 90.5C270.693 89.6058 276.401 88 276.401 88ZM259.901 102.9C259.901 102.9 258 111.884 253.701 115C250.386 117.402 247.693 117.74 243.601 117.8C241.197 117.835 237.501 116.975 237.501 116.975C237.501 116.975 236.65 116.525 236.501 116C236.332 115.406 237.001 114.5 237.001 114.5L239.001 115C239.001 115 246.318 116.72 250.001 114.5C252.251 113.144 253.093 111.718 254.501 109.5C256.146 106.908 257.344 102.171 257.344 102.171L259.901 102.9Z" fill="url(#paint2_linear_194_1010)"/>
  <path d="M475.8 77.5C479.1 86.1 482.3 97.4 482.8 102C483.2 105 483.9 110 484.4 113C486.4 124 486.6 127.9 485.4 132.8C484.8 135.5 484.2 140.5 484 143.9C483.9 147.6 483.3 150.4 482.6 150.9C481.9 151.3 481.6 152.4 482 153.4C482.4 154.5 482 155.6 480.9 156.4C479.8 157.2 479.3 158.4 479.7 159.3C480 160.2 479.9 161 479.5 161.2C479 161.4 477 165.3 475 169.9C471.2 178.9 465.1 188.9 459.7 195.4C457.9 197.5 456.7 199.8 457.1 200.4C457.4 201 457.4 201.2 456.9 200.8C456.5 200.4 453.5 202.5 450.3 205.5C444.3 211 433.2 219.5 425.7 224.5C423.3 226 421.4 227.6 421.4 228C421.4 228.4 420.1 229 418.4 229.3C416.8 229.7 415.4 230.6 415.4 231.3C415.4 232.7 406.6 237.9 403 238.6C401.9 238.8 400.6 239.7 400.1 240.5C399.7 241.3 398.9 241.8 398.5 241.5C398 241.3 397.1 241.7 396.4 242.5C395.7 243.3 394.6 244 393.8 244C393.1 244 392.1 244.6 391.7 245.4C391.3 246.2 386.9 249.5 381.9 252.8C369 261.5 365.2 264.2 362.5 266.7C361.2 267.9 358.7 269.6 356.9 270.4C353.7 272 338.4 287.9 337.2 291C336.9 291.9 335.2 293.8 333.4 295.2C331.7 296.5 330.2 298.3 330 299.1C329.9 299.9 328.5 302.7 327 305.3C325.4 307.9 324.4 310.3 324.6 310.6C324.9 310.8 327.8 308 331 304.3C334.2 300.5 337.8 296.7 338.9 295.7C340 294.7 342.5 292.4 344.4 290.7C352.9 282.9 371.1 270.3 382.9 264C386.8 262 391.6 259.3 393.7 258.2C395.8 257 398.1 256 398.9 256C399.7 256 400.4 255.7 400.4 255.2C400.4 254.8 403.2 253.4 406.7 252.2C446.3 237.4 476.3 209.6 487.4 177.4C489.1 172.5 490.9 167.6 491.4 166.5C493.6 161.5 495.1 133.2 493.6 125.2C493 122.1 491.9 116.3 491.3 112.5C489.8 103.2 485.9 91.9 481.7 84.3C478.2 78 474.2 73.4 475.8 77.5Z" fill="#ECECEC"/>
  <path d="M22.1996 136.2C19.0996 146.3 18.0996 153.6 18.0996 166.5C18.0996 182.3 20.9996 195.9 26.3996 205.5C32.9996 217 35.9996 221.3 41.7996 227.2C47.8996 233.5 70.2 247 70.2 247C70.2 247 62.7996 240.9 60.7996 237.9C54.2996 228.3 46.6996 211.2 37.1996 185.5C32.5996 172.9 25.3996 141.7 25.3996 134.3C25.3996 132.156 25.2 123.5 25.2 123.5C25.2 123.5 23.212 132.882 22.1996 136.2Z" fill="url(#paint3_linear_194_1010)"/>
  <path d="M510.5 141C510.5 141 510.157 150.166 509.5 156C508.523 164.678 505.5 178 505.5 178C505.5 178 502.234 189.113 499.5 196C496.31 204.037 494.165 208.422 490 216C484.913 225.256 480.81 229.69 475.3 238.7C474.158 240.568 472.4 243.5 472.4 243.5C472.4 243.5 486.29 234.778 493.5 227.3C510.088 210.096 517.026 195.259 518.4 171.4C519.347 154.968 510.5 130 510.5 130V141Z" fill="url(#paint4_linear_194_1010)"/>
  <path d="M507.9 239.1C501.144 245.381 488.5 253.5 488.5 253.5C488.5 253.5 486.684 254.737 485.5 255.5C467.695 266.974 455.217 270.059 434.3 273.4C428.751 274.286 420 275 420 275C420 275 424.644 272.202 427.4 270.1C433.088 265.763 440.3 257.1 440.3 257.1C440.3 257.1 434.084 259.65 430 261C424.02 262.978 430.5 260.9 414.4 265.1C412.5 265.6 406.6 266.9 401.4 268C390.3 270.3 385.49 270.629 376.3 275C365.989 279.905 352.8 292.4 352.8 292.4C352.8 292.4 345.6 300.9 342.1 308.2C339.5 313.6 337.4 318.7 337.4 319.5C337.4 320.3 337 321.8 336.5 322.8C335.2 325.3 333.4 340.5 333.4 348.6C333.5 355.7 333.118 365.707 337.2 375.5C341.514 385.847 344.344 394.328 354.9 398.1C360.427 400.075 364.884 402.045 369.9 399C370.376 398.711 371.078 398.195 371.078 398.195C371.078 398.195 368.456 397.424 367 396.5C363.861 394.508 362.799 392.245 361.4 388.8C360.968 387.736 360.5 386 360.5 386C360.5 386 368.939 388.401 374.5 388.8C386.257 389.644 390.8 388.8 404.1 382.9C406.5 381.8 412 379 412 379L415.8 376.5C415.8 376.5 406.4 379.8 402.7 379.9C386.2 380.5 372.4 375.5 358.1 363.7C353.181 359.613 351.25 354.6 351.25 354.6C351.25 354.6 353.041 355.409 354.2 355.9C370.884 362.973 386.8 364.9 399.7 365C407.8 365 419.7 362.7 425.6 360L429.9 358C429.9 358 425.335 358.436 422.4 358.5C412.918 358.706 398.3 355.5 398.3 355.5L408.1 353.9C408.1 353.9 437.108 350.5 449.5 338.5C452.787 335.317 457 329.5 457 329.5C457 329.5 449.924 333.26 440.4 335.1C434.1 336.3 389.7 337.8 378.2 337.2C373.189 336.915 368.7 335.5 368.7 335.5C368.7 335.5 376.931 330.847 382.5 328.5C389.123 325.709 393.102 324.82 400 322.8C412.891 319.025 420.64 318.88 433.5 315C450.434 309.891 455.657 310.151 468 303C473.7 299.697 479.471 295.362 481.8 293.3C493.161 283.245 504.4 261.7 504.4 261.7C504.4 261.7 506.273 258.458 507 256.5C509.799 248.963 510.811 247.559 512 241.5C512.569 238.6 513 234 513 234C513 234 509.963 237.182 507.9 239.1ZM472.4 279.9C472.4 279.9 459.655 290.523 450 294.5C436.318 300.136 409 300 409 300C409 300 417.019 298.1 420 297.5C424.658 296.562 427.339 296.423 432 295.5C436.321 294.645 438.757 294.186 443 293C449.604 291.155 453.276 289.875 459.5 287C464.72 284.588 472.4 279.9 472.4 279.9Z" fill="url(#paint5_linear_194_1010)"/>
  <path d="M26.4004 238.1C27.8666 250.23 31.3004 256.1 37.1004 267.5C43.5004 280.2 52.3345 292.409 66.5 304C75.365 311.253 81.0956 314.499 91.4004 319.5C99.7192 323.537 104.691 325.189 113.5 328C121.423 330.528 134.1 333.4 134.1 333.4C134.1 333.4 130.317 335.027 127.8 335.8C114.183 339.985 91.4004 333.4 91.4004 333.4L87.9004 332.7C87.9004 332.7 86.8004 331.4 90.9004 336.1C95.0004 340.8 101 346.5 108.4 350.1C113.596 352.628 117.103 353.759 123 354C126.606 354.147 132.2 353.141 132.2 353.141C132.2 353.141 129.863 355.362 128.1 356.4C124.915 358.275 121.5 359 119 359C115.959 359 110.4 358.1 110.4 358.1C110.4 358.1 114.721 360.747 117.7 362C124.372 364.807 126 365.2 135.9 365.5C142 365.7 148 366 148 366C148 366 148.901 370.4 142.2 373.7C135.5 377 123.5 375 123.5 375C123.5 375 128.427 379.917 132.2 382.2C141.528 387.843 148.9 387 159.7 387C167.1 387 167.4 389.3 167.4 389.3C167.4 389.3 167.769 391.267 167 392.5C166.076 393.982 163.5 396 163.5 396C163.5 396 166 396.5 174.7 390.7C175.832 389.945 177.4 388.5 177.4 388.5L170.3 378C166.5 372.2 162.4 365.5 161.2 363C155.9 351.2 154.5 348.1 152.7 342.5C151.5 339.2 150.1 334.4 149.5 331.7C148.9 329.1 147.8 324.9 147.2 322.2C145.8 317 145.4 284.3 146.7 277.3L147.4 273.1L138.7 270.4C133.8 269 127.4 267.1 124.4 266.4C121.4 265.6 118 264.6 116.9 264.1C115.8 263.6 113.3 262.7 111.4 262C109.5 261.3 108.066 260.729 105.9 260C102.352 258.805 96.7004 257.3 96.7004 257.3C96.7004 257.3 105.465 266.715 112.1 271.5C113.798 272.724 116.542 274.5 116.542 274.5C116.542 274.5 106.901 273.959 100.8 273C82.5103 270.123 69.3004 264.8 56.1004 257.2C50.0004 253.6 38.7639 248.438 30.7004 239.4C28.7393 237.202 26 233.5 26 233.5C26 233.5 26.184 236.31 26.4004 238.1ZM62.5 269.5C65.2946 270.964 67.3606 272.5 67.3606 272.5C67.3606 272.5 66.2199 272.219 65.5 272C64.9092 271.82 64.5733 271.729 64 271.5C63.1892 271.176 62.7523 270.943 62 270.5C61.3935 270.143 61.048 269.942 60.5 269.5C59.8551 268.98 59.5858 268.586 59 268C58.4142 267.414 57.5 266.5 57.5 266.5C57.5 266.5 60.7155 268.565 62.5 269.5ZM69.2004 282C73.5 284.5 90 291.5 90 291.5L95 293.5C95 293.5 95.7157 293.766 99.5 295C100.991 295.486 104.5 296.5 104.5 296.5C104.5 296.5 106.634 297.104 108 297.5C110.504 298.225 112.1 298.6 114.5 299.5C116.9 300.4 119.5 301 119.5 301C119.5 301 114.613 301.261 111.5 301C108.941 300.785 107.528 300.452 105 300C102.844 299.615 101.228 299.298 99.5 298.9C98.3081 298.625 97.6737 298.344 96.5 298C95.136 297.6 94.3466 297.455 93 297C91.2414 296.405 89.6004 295.6 88.6004 295.2C77 290 79.5 291.5 69.2004 284.5C65.4307 281.754 64.4004 279.239 64.4004 279.239C64.4004 279.239 66.8727 280.646 69.2004 282Z" fill="url(#paint6_linear_194_1010)"/>
  <path d="M95.7324 154C99.4671 163.046 107.732 176 107.732 176C107.732 176 101.593 156.015 99.2324 141.5C97.4592 130.598 97.0796 122.04 96.7324 111C96.4372 101.614 96.3954 96.2094 98.2324 87C100.261 76.8319 102.814 71.3993 107.222 62.0221L107.232 62C112.603 50.5736 116.305 44.3265 124.232 34.5C130.042 27.2994 133.91 23.7495 140.732 17.5C148.827 10.0844 162.732 0 162.732 0C162.732 0 146.215 7.43754 136.732 14C129.886 18.7378 126.15 21.6437 120.232 27.5C112.624 35.0293 108.914 39.9287 103.232 49C97.8088 57.6589 95.1336 62.8655 91.7324 72.5C88.0732 82.8651 86.3735 89.0266 85.7324 100C85.1148 110.571 86.1664 116.614 88.2324 127L88.3341 127.511C90.4269 138.034 91.6223 144.045 95.7324 154Z" fill="url(#paint7_linear_194_1010)"/>
  <path d="M386.305 377.225C397.512 379.894 415.796 376.493 415.796 376.493C415.796 376.493 405.738 380.698 398.926 381.913L398.79 381.937C391.181 383.295 386.503 384.13 378.932 382.41C369.788 380.333 363.991 377.74 358.128 370.423C353.91 365.16 351.232 354.589 351.232 354.589C351.232 354.589 357.722 363.323 363.732 367.5C371.262 372.733 377.386 375.101 386.305 377.225Z" fill="url(#paint8_linear_194_1010)"/>
  <path d="M460.232 65C458.631 59.8718 455.732 52 455.732 52L460.232 56.5L466.732 65L472.232 77.5L475.232 90.5L477.232 107.5L474.732 124.5L467.232 146L457.232 163.5L446.232 179L434.232 191L417.232 205L397.732 217.5L377.232 232.5L360.732 247.5L348.732 260.5L339.232 271.5L329.232 284.5L321.232 299L315.732 314.5L313.232 326L311.232 344.5C311.232 344.5 309.851 334.469 309.732 328C309.639 322.92 309.723 320.055 310.232 315C310.809 309.283 311.419 306.094 312.732 300.5C313.99 295.147 314.91 292.188 316.732 287L316.893 286.542C319.114 280.219 320.426 276.483 323.732 270.5C327.191 264.242 329.8 261.111 334.232 255.5C339.289 249.099 342.507 245.81 348.232 240C354.926 233.208 358.863 229.552 366.232 223.5C373.355 217.65 377.733 214.858 385.232 209.5C392.769 204.116 397.285 201.506 404.732 196C411.108 191.286 414.767 188.724 420.732 183.5C425.408 179.406 427.975 177.028 432.232 172.5C435.932 168.566 438.105 166.403 441.232 162C444.122 157.932 445.179 155.287 447.732 151C450.063 147.087 451.581 145.014 453.732 141C456.373 136.072 457.672 133.198 459.732 128C461.257 124.154 462.193 122.005 463.232 118C464.571 112.841 464.85 109.816 465.232 104.5C465.584 99.6104 465.461 96.7717 465.255 92.0157L465.232 91.5C465.03 86.8018 465.009 84.138 464.232 79.5C463.263 73.7065 461.983 70.6072 460.232 65Z" fill="#39C1FF"/>
  <path d="M467.23 65.5L455.73 53C455.73 53 463.432 59.3164 467.73 64C471.112 67.6845 472.792 69.9531 475.73 74C478.881 78.3387 480.72 80.7622 483.23 85.5C486.184 91.0749 487.386 94.4664 489.23 100.5C491.156 106.799 491.659 110.501 492.73 117C493.818 123.596 494.42 127.323 494.73 134C495.057 141.025 494.831 144.994 494.23 152C493.827 156.705 493.795 159.399 492.73 164C491.756 168.211 490.688 170.431 489.23 174.5C487.249 180.03 486.327 183.231 483.73 188.5C480.354 195.351 477.779 198.864 473.23 205C469.598 209.901 467.439 212.584 463.23 217C457.503 223.011 453.852 225.991 447.23 231C440.017 236.457 435.643 239.117 427.73 243.5C417.793 249.005 411.418 250.472 401.23 255.5C391.909 260.1 386.134 262.502 377.73 268C372.6 271.357 370.239 272.401 365.73 275.5C357.73 281 354.447 283.335 347.73 289C342.66 293.276 339.73 295.626 335.23 300.5C331.652 304.377 329.822 306.725 326.73 311C323.079 316.048 320.771 318.811 318.23 324.5C316.468 328.447 314.73 335 314.73 335L313.855 337.875L312.98 340.75L311.23 346.5L312.23 338.5V332L315.23 319L319.23 305L330.23 285L341.23 275L355.73 262L371.73 250.5L395.73 237.5L426.73 220.5L452.23 201L467.23 181.5L479.23 153L483.73 127L481.23 106L477.73 92L472.73 76.5L467.23 65.5Z" fill="#2ACA90"/>
  <path d="M462.23 60.5L455.73 53L461.73 58.5L466.73 64C466.73 64 469.36 67.225 470.73 69.5C472.398 72.2687 472.953 74.031 474.23 77C475.721 80.4641 476.465 82.4476 477.73 86C479.243 90.2465 480.118 92.6314 481.23 97C482.213 100.859 482.58 103.071 483.23 107C484.001 111.659 484.302 114.297 484.73 119C484.979 121.729 485.03 123.259 485.03 126C485.03 128.741 484.954 130.268 484.73 133C484.266 138.674 484.385 141.925 483.23 147.5C482.175 152.597 481.128 155.408 479.342 160.202L479.23 160.5C477.521 165.089 476.226 167.528 474.23 172C472.13 176.708 471.213 179.482 468.73 184C466.149 188.699 464.15 191.371 460.73 195.5C457.912 198.903 456.418 200.441 453.23 203.5C449.042 207.52 446.642 209.725 442.23 213.5C438.222 216.93 436.101 218.545 431.73 221.5C428.179 223.901 425.996 225.45 422.23 227.5C417.245 230.214 414.284 232.915 409.23 235.5C404.721 237.807 401.766 239.744 397.23 242C393.164 244.023 390.289 246.962 386.23 249C382.484 250.881 380.84 252.868 377.23 255C374.432 256.652 373.923 257.18 371.23 259C367.639 261.428 367.235 262.448 363.73 265C360.794 267.138 359.108 268.784 356.23 271C353.041 273.456 348.23 278.5 348.23 278.5C348.23 278.5 345.355 281.135 343.23 283.5C340.456 286.588 338.42 288.838 335.73 292C333.754 294.323 331.23 297.5 331.23 297.5C331.23 297.5 328.409 301.408 326.73 304C324.874 306.867 324.239 307.935 322.73 311C321.338 313.83 320.389 315.566 319.23 318.5C317.845 322.008 316.88 323.908 315.73 327.5C314.806 330.387 314.457 332.057 313.73 335C312.629 339.462 311.23 346.5 311.23 346.5L312.23 331.5L315.23 316.5L321.73 300L329.23 287.5L347.23 268.5L371.23 250.5L396.73 237.5L420.73 225L438.23 212.5L451.73 201.5L464.23 186L474.23 165L480.23 146L482.73 133V119L479.23 97L475.73 85.5L472.73 77L470.23 71L467.73 67L462.23 60.5Z" fill="#F05252"/>
  <path d="M461.731 60L455.732 53C455.732 53 460.238 58.7492 462.731 63C463.748 64.734 465.365 66.6856 466.231 68.5C467.137 70.398 467.495 71.0299 468.231 73C469.808 77.223 470.549 79.6497 471.731 84C472.886 88.2512 473.661 90.6316 474.231 95C474.585 97.7176 474.833 99.2611 474.931 102C475.028 104.732 475.346 105.769 475.231 108.5C474.948 115.204 474.34 119.485 472.731 126C471.398 131.395 470.302 134.843 468.231 140C465.888 145.835 464.458 148.603 461.231 154C458.144 159.163 456.92 162.249 453.231 167C449.321 172.035 446.988 175.254 442.731 180C438.397 184.832 436.655 187.271 431.731 191.5C426.84 195.7 423.479 198.256 418.231 202C412.54 206.061 409.913 207.926 404.231 212C398.199 216.325 393.639 218.506 387.731 223C382.537 226.951 379.771 229.354 374.731 233.5C371.198 236.407 369.584 237.888 366.231 241C362.283 244.664 359.405 247.06 355.731 251C351.584 255.448 350.173 256.869 346.231 261.5C343.622 264.565 341.226 267.341 338.731 270.5C335.535 274.545 334.271 276.337 331.231 280.5C328.835 283.781 327.754 284.977 325.731 288.5C323.598 292.214 322.38 294.048 320.731 298C319.279 301.48 317.898 304.414 316.731 308C315.544 311.648 314.934 313.729 314.231 317.5C313.654 320.595 313.017 321.865 312.731 325C312.322 329.477 311.798 332.005 311.731 336.5C311.697 338.843 311.031 342.5 311.031 342.5L311.232 346.5L312.232 333.5L315.731 322L319.231 310.5L324.731 298L330.731 287.5L339.731 274L355.731 257L373.231 242L398.231 223.5L418.731 206.5L436.231 192L451.231 176L460.731 164L468.231 150L474.231 136L476.232 123.5L477.231 112V102L476.232 95L474.731 85L472.231 76.5L468.731 70L466.231 65L461.731 60Z" fill="#F05252"/>
  <path d="M470.73 71C467.753 64.5457 455.73 53 455.73 53C455.73 53 466.068 65.1835 468.23 71C470.362 76.7324 471.659 80.1068 473.232 86.0169C474.779 91.8298 475.301 95.0001 475.73 101C476.177 107.26 476.167 110.795 475.23 117C474.247 123.513 473.209 127.717 471.23 134C468.58 142.416 466.597 146.832 462.23 154.5C457.647 162.549 454.511 167.263 448.73 174.5C443.468 181.089 440.432 184.786 434.23 190.5C427.568 196.639 423.006 199.601 415.73 205C402.807 214.59 394.215 218.845 381.73 229C371.541 237.288 365.921 242.116 356.73 251.5C347.528 260.897 343.203 266.539 335.23 277C331.158 282.344 329.028 284.646 325.73 290.5C322.295 296.599 320.551 299.896 318.23 306.5C316.674 310.929 315.821 313.934 314.73 318.5C312.091 329.556 311.23 346.5 311.23 346.5C311.23 346.5 312.556 336.934 314.23 331C315.591 326.177 316.69 323.489 318.533 318.983L318.73 318.5C320.516 314.132 321.479 311.647 323.73 307.5C325.824 303.644 327.193 301.58 329.73 298C332.781 293.696 334.765 291.478 338.23 287.5C343.038 281.981 345.862 278.975 351.23 274C358.366 267.388 370.73 258.5 370.73 258.5C370.73 258.5 389.185 245.248 401.23 238.5C414.584 231.019 420.916 227.092 433.23 218L433.628 217.706C445.392 209.021 452.416 203.835 461.23 192C467.393 183.725 469.969 178.397 474.23 169C476.401 164.212 477.474 161.456 479.23 156.5C481.79 149.275 482.285 145.23 483.209 137.676L483.23 137.5C484.323 128.565 484.356 123.43 483.23 114.5C482.487 108.608 482.059 105.288 480.73 99.5C479.224 92.9377 477.644 89.4553 475.73 83C474.343 78.3197 472.775 75.4328 470.73 71Z" fill="white"/>
  <path d="M146.732 288.5C147.255 282.391 148.5 273 148.5 273L140.5 271C140.5 271 138.515 279.917 137.732 287C136.938 294.192 136.838 297.776 137.232 305C137.765 314.751 138.943 320.642 141.732 330C143.815 336.987 145.367 340.796 148.232 347.5C151.047 354.085 152.793 357.719 156.232 364C158.967 368.993 160.371 371.906 163.732 376.5C167.975 382.299 175.6 390 175.6 390L178.6 387.5C178.6 387.5 168.808 374.014 163.732 364.5C159.867 357.256 158.243 352.638 155.232 345C152.152 337.187 150.521 333.206 148.732 325C147.18 317.877 146.713 313.775 146.232 306.5C145.769 299.486 146.133 295.504 146.732 288.5Z" fill="url(#paint9_linear_194_1010)"/>
  <path d="M319.232 217.5C314.485 224.311 305.232 233.5 305.232 233.5C305.232 233.5 313.782 221.37 318.232 213C321.267 207.292 323.155 204.121 325.232 198C327.227 192.124 329.002 189.162 329.732 183C330.56 176.019 331.543 172.483 330.732 165.5C330.158 160.555 329.72 156.879 328.732 152C326.636 141.641 324.397 130.868 320.732 125.5C320.732 125.5 324.31 130.232 326.232 133.5C329.781 139.533 331.215 143.298 333.232 150C335.852 158.7 337.179 163.926 336.732 173C336.234 183.126 333.608 188.631 329.732 198C326.426 205.992 324.178 210.404 319.232 217.5Z" fill="url(#paint10_linear_194_1010)"/>
  <path d="M160.232 244C163.896 236.621 170.5 227 170.5 227L164.232 221C164.232 221 156.281 230.96 152.232 238.5C148.253 245.911 144 259.6 144 259.6L152 262.9C152 262.9 156.685 251.145 160.232 244Z" fill="url(#paint11_linear_194_1010)"/>
  <path d="M329.734 422.5C338.461 423.589 354.234 422.5 354.234 422.5C354.234 422.5 341.681 427.204 337.234 427.5C332.787 427.796 314.78 428.319 306.734 427C298.687 425.681 294.297 424.048 286.734 421C279.201 417.964 275.255 415.582 268.234 411.5C262.006 407.879 258.163 406.234 252.734 401.5C248.358 397.685 246.151 395.903 242.234 392C233.678 383.477 229.335 378.112 222.734 368C217.051 359.296 214.259 354.084 210.234 344.5C206.886 336.53 204.993 331.964 203.232 323.5C200.923 312.397 200.94 305.812 201.734 294.5C202.273 286.814 202.76 282.448 204.734 275C206.073 269.946 207.187 267.145 209.075 262.398L209.234 262C213.881 250.313 217.449 244.09 224.234 233.5C229.058 225.969 231.58 221.49 237.734 215C245.794 206.498 262.733 195.5 262.733 195.5C262.733 195.5 253.622 205.053 248.734 210.5C243.641 216.175 240.393 219.109 236.234 225.5C231.516 232.747 230.134 237.55 226.734 245.5C223.525 253.002 221.794 257.105 219.734 265C217.153 274.89 216.11 280.78 216.234 291C216.345 300.251 217.013 305.519 219.234 314.5C221.072 321.934 222.82 325.918 225.734 333C229.289 341.641 231.206 346.624 236.234 354.5C240.943 361.877 244.094 366.307 249.734 373C255.971 380.403 259.662 383.888 266.734 390.5C273.951 397.249 278.337 400.289 286.734 405.5C294.153 410.105 298.657 412.179 306.734 415.5C315.643 419.163 320.174 421.307 329.734 422.5Z" fill="url(#paint12_linear_194_1010)"/>
  <path d="M300.233 160.5C300.201 153.566 297.233 143 297.233 143C297.233 143 302.734 150.491 304.733 156C306.367 160.5 306.268 163.584 306.233 168.5C306.182 175.661 304.707 179.616 302.733 186.5C300.655 193.75 298.665 197.551 295.733 204.5C291.625 214.238 287.831 219.062 284.233 229C280.058 240.533 277.964 247.296 276.733 259.5C275.851 268.242 275.873 273.255 276.733 282C277.953 294.396 280.82 301.351 284.233 313C287.17 323.023 293.733 338 293.733 338C293.733 338 287.53 328.476 284.233 322C278.738 311.206 276.116 304.764 273.233 293C270.979 283.8 270.009 278.468 269.733 269C269.494 260.782 269.763 256.089 271.233 248C272.615 240.4 274.079 236.254 276.733 229C279.226 222.185 281.358 218.662 284.233 212C287.424 204.608 289.394 200.534 292.233 193C294.346 187.395 295.717 184.295 297.233 178.5C299.037 171.606 300.266 167.626 300.233 160.5Z" fill="url(#paint13_linear_194_1010)"/>
  <path d="M394.732 335.5H368.732C368.732 335.5 378.36 339.003 384.732 340.5C396.573 343.282 403.586 344.137 415.732 343.5C423.619 343.086 428.179 342.807 435.732 340.5C444.752 337.745 457.232 329.5 457.232 329.5C457.232 329.5 439.73 334.25 428.232 335.5C415.227 336.914 407.815 335.5 394.732 335.5Z" fill="url(#paint14_linear_194_1010)"/>
  <path d="M16.732 153.5C17.9678 141.386 25.232 123.5 25.232 123.5C25.232 123.5 21.0604 141.682 21.232 153.5C21.3869 164.158 22.4522 170.21 25.232 180.5C28.0878 191.071 29.3792 197.684 34.2322 207.5C38.8479 216.836 42.5125 221.543 49.232 229.5C56.1196 237.656 70.232 247 70.232 247C70.232 247 59.6235 243.071 53.732 239C47.4835 234.682 44.3284 231.632 39.2322 226C32.9693 219.079 29.3471 214.878 25.232 206.5C21.4718 198.844 19.9039 193.864 18.2324 185.5C15.776 173.208 15.46 165.97 16.732 153.5Z" fill="url(#paint15_linear_194_1010)"/>
  <path d="M302.4 452.999C302.4 452.999 301.8 453.899 302.7 454.999C306 458.799 306.4 463.299 306.4 496.699C306.4 514.999 306 530.199 305.6 530.499C304.7 530.999 301.3 527.299 287.9 511.099C283.6 505.899 279.8 501.399 279.5 501.099C279.1 500.799 275.5 496.499 271.4 491.599C267.3 486.599 263.7 482.399 263.4 482.099C263.1 481.799 260 478.199 256.4 474.099C252.8 469.999 247 463.599 243.5 459.899L237.1 453.099H227.6H218.1L222.3 457.599L226.4 462.099V513.399C226.4 563.299 226.3 564.799 224.4 566.899C223.3 568.099 222.4 569.299 222.4 569.599C222.4 569.899 227.7 570.099 234.1 570.099H245.7L243.8 567.799C239.6 563.099 239.4 561.399 239.4 523.599C239.4 484.299 239.4 484.199 244.4 489.999C245.8 491.599 255.7 503.099 266.4 515.599C288.9 541.799 290.568 538.999 301.8 557.099C305.036 562.314 309.5 570.799 309.5 570.799H317.5C317.5 570.799 317.4 565.699 317.4 515.399C317.4 462.399 317.5 460.499 319.4 457.299C320.5 455.499 321.4 453.299 321.4 453.299L302.4 452.999Z" fill="url(#paint16_linear_194_1010)"/>
  <path d="M1.4 453.599C1.4 453.599 2.3 455.099 3.4 456.299C4.4 457.399 5.6 460.199 5.9 462.499C6.3 464.799 6.4 488.499 6.2 515.299L5.9 563.999L3 566.999L0 570.099H16.2C25.1 570.099 32.5 570.099 32.5 570.099L30.5 567.299C30.5 567.299 28.1 564.099 27.5 562.199C25.9 557.399 26 520.899 27.6 519.299C28.4 518.499 33.6 518.099 44.5 518.099C58.6 518.099 60.4 518.299 62.7 520.099L65.2 522.099L66.4 516.799C67.1 513.999 68.5 510.099 69.5 508.299C70.5 506.499 71.4 504.899 71.4 504.799C71.4 504.699 61.7 504.699 49.7 504.899C32.7 505.099 27.9 504.899 27.3 503.899C26.3 502.399 27 467.699 27 467.699C27 467.699 30.3 466.099 47.9 466.099C68.1 466.099 68.3 466.099 71.2 468.599C74.7 471.499 75.4 469.599 75.4 469.599L82.2 453.799C82.2 453.799 64.3 453.099 42 453.099C19.7 453.099 1.4 453.599 1.4 453.599Z" fill="url(#paint17_linear_194_1010)"/>
  <path d="M106.4 453.999L107.4 455.599C107.4 455.599 109.1 457.799 109.9 459.799C111.2 462.799 111.4 471.099 111.4 510.599C111.4 560.699 111.3 562.299 106.6 567.299L104 570.099H141.7H179.3L180.7 566.799C181.5 565.099 182.7 561.999 183.4 560.099C184.1 558.199 185.1 555.599 185.7 554.399C187.3 550.899 186.2 550.799 180.3 553.799C175 556.499 174.4 556.599 155.6 556.899C145 557.099 135.2 556.999 133.8 556.699C132.4 556.399 131.4 556.099 131.4 556.099L131.6 537.299L131.9 518.599L149.8 518.299C162.3 518.099 168.1 518.399 169 519.199C169.8 519.899 170.6 520.199 170.8 519.999C171.5 519.199 172.2 502.099 171.5 502.099C171.2 502.199 169.8 502.799 168.4 503.599C166.5 504.699 161.7 504.999 148.7 505.099H131.4V485.499V465.999L151.5 466.299L171.6 466.599L173.8 469.299C176.6 472.899 177.1 472.799 177.9 468.899C178.3 467.199 179.9 463.299 181.5 460.199C183.1 457.199 184.4 454.299 184.4 453.899C184.4 453.399 166.9 453.099 145.4 453.099C121.7 453.099 106.4 453.999 106.4 453.999Z" fill="url(#paint18_linear_194_1010)"/>
  <path d="M361.4 453.599C361.4 453.899 362.3 455.099 363.4 456.299C364.4 457.399 365.6 460.199 365.9 462.499C366.3 464.799 366.4 488.499 366.2 515.299L365.9 563.899C365.9 563.899 365 564.899 363.7 566.299C362.4 567.699 361.4 569.399 361.4 569.399C361.4 569.399 368.4 570.099 376.9 570.099C385.4 570.099 392.4 569.699 392.4 569.699C392.4 569.699 390.859 567.867 390 566.599C388.61 564.545 387.4 562.699 387 560.999C386.7 559.199 386.4 536.199 386.4 509.699C386.4 463.499 386.5 461.399 388.4 457.599C389.5 455.399 390.4 453.499 390.4 453.399C390.4 453.199 383.9 453.099 375.9 453.099C367.9 453.099 361.4 453.299 361.4 453.599Z" fill="url(#paint19_linear_194_1010)"/>
  <path d="M431.299 458.899C436.199 463.999 443.399 473.299 443.399 474.599C443.399 474.899 446.699 480.099 450.799 486.299C454.799 492.499 459.399 499.899 460.999 502.799L463.899 507.999L461.499 512.799C459.099 517.399 456.099 522.399 448.799 533.799C446.899 536.699 445.399 539.299 445.399 539.499C445.399 540.399 433.099 559.599 430.199 563.299C428.599 565.299 426.399 567.299 425.399 567.599C423.748 568.128 423.5 570.099 423.5 570.099C423.5 570.099 428.131 570.099 435.899 570.099C444.518 570.099 448.5 570.099 448.5 570.099C448.5 570.099 447.961 568.061 447.299 567.399C446.499 566.599 447.499 564.399 450.699 559.499C461.999 541.899 469.799 529.399 470.799 527.399C471.387 526.165 474 525.035 474 525.035C474 525.035 475.258 525.941 476 526.599C479.144 529.388 478.299 530.599 481.899 535.599C485.399 540.499 488.399 545.299 488.399 545.299C488.399 545.299 500.699 563.099 503.899 565.999C508.199 569.699 511.099 570.299 524.299 569.899L534.699 569.599L529.699 566.499C526.999 564.799 522.699 560.699 520.299 557.499C514.599 549.899 486.399 506.699 486.399 505.499C486.399 504.099 491.299 495.199 495.499 488.899C497.699 485.799 499.399 482.999 499.399 482.699C499.399 481.899 508.799 467.099 513.799 459.799L517 454.599L519.5 453.099H506.999H495.399C495.399 453.099 495.599 453.799 495.999 455.499C496.399 457.199 494.999 460.399 490.499 467.899C482.499 481.299 477.299 489.099 476.299 489.099C475.599 489.099 473.799 486.699 470.699 481.599C453.199 452.899 453.499 453.099 436.599 453.099H425.599L431.299 458.899Z" fill="url(#paint20_linear_194_1010)"/>
  <path d="M341.9 598.699C332.5 602.099 326.4 608.899 326.4 618.799C326.4 631.799 335.8 641.099 348.8 641.099C355.8 641.099 359 639.799 364.1 634.999C368.4 630.999 370.4 626.199 370.4 619.599C370.4 611.299 367.6 606.099 360.5 601.199C358 599.399 355.6 598.699 350.5 598.499C346.9 598.399 343 598.399 341.9 598.699ZM354.1 606.199C358.5 607.799 362.3 611.899 363 616.099C364.1 622.499 362.8 626.699 359 630.599C355.9 633.699 354.1 633.599 348.8 634.099C341.9 633.599 337.9 631.599 335.2 625.299C330 613.165 341.9 602.099 354.1 606.199Z" fill="#012C4F"/>
  <path d="M197.4 620.099V641.099H200.9H205V634.099V626.999H210.9C221 627.099 226.5 622.099 227.5 616.599C228.503 611.081 227 607.599 225 604.099C223.92 602.209 222.041 601.048 219.5 600.099C215.605 598.645 208.9 599.099 208.9 599.099H197.4V620.099ZM217.5 607.099C218.585 607.642 220.268 610.013 220.5 612.599C220.696 614.782 219.644 617.184 218.5 618.099C216 620.099 210 619.599 210 619.599H205V614.599V605.099C205 605.099 207.655 605.099 209.8 605.099C213.1 605.099 214.721 605.71 217.5 607.099Z" fill="#012C4F"/>
  <path d="M261.199 619.884V640.599H266.099H270.199V633.599V625.599C270.199 625.599 276.299 626.399 281.499 633.599C284.306 637.585 285.499 640.599 285.499 640.599H290.499L293.999 640.599C293.999 640.599 293.144 638.448 292.499 637.099C291.612 635.243 290.399 633.699 289.799 632.599C289.199 631.499 288.799 631.299 287.999 630.099C287.433 629.156 284.999 626.099 284.999 626.099C284.999 626.099 288.091 624.249 290.099 622.399C296.899 616.099 296.899 606.899 289.999 601.599C286.899 599.199 285.999 599.099 273.899 599.099H261.199V619.884ZM283.499 607.599C286.399 610.199 286.199 615.199 284.499 617.099C282.499 618.699 280.699 619.099 276.299 619.099H270.399C270.399 619.099 270.399 616.299 270.399 612.799C270.399 609.299 270.399 606.099 270.399 606.099C270.399 606.099 281.299 605.599 283.499 607.599Z" fill="#012C4F"/>
  <path d="M100.5 620.599C111.297 621.488 130.028 620.988 141.5 620.099C152.972 619.655 143.658 618.099 121.39 618.099C99.1213 618.099 89.7032 620.155 100.5 620.599Z" fill="#012C4F"/>
  <path d="M425.477 620.599C436.273 621.488 455.005 620.988 466.477 620.099C477.948 619.655 468.635 618.099 446.366 618.099C424.098 618.099 414.68 620.155 425.477 620.599Z" fill="#012C4F"/>
  <defs>
    <linearGradient id="paint0_linear_194_1010" x1="137.5" y1="252" x2="107" y2="80" gradientUnits="userSpaceOnUse">
      <stop stop-color="#043374"/>
      <stop offset="1" stop-color="#0DE0F5"/>
    </linearGradient>
    <linearGradient id="paint1_linear_194_1010" x1="432.558" y1="323.381" x2="394.696" y2="104.378" gradientUnits="userSpaceOnUse">
      <stop stop-color="#043374"/>
      <stop offset="1" stop-color="#0DE0F5"/>
    </linearGradient>
    <linearGradient id="paint2_linear_194_1010" x1="258.739" y1="429.668" x2="258.739" y2="47.9601" gradientUnits="userSpaceOnUse">
      <stop offset="0.14728" stop-color="#043374"/>
      <stop offset="0.349101" stop-color="#46B1D2"/>
      <stop offset="0.460883" stop-color="#035A8B"/>
      <stop offset="0.995094" stop-color="#043C70"/>
    </linearGradient>
    <linearGradient id="paint3_linear_194_1010" x1="56.9038" y1="242.286" x2="40.7817" y2="161.894" gradientUnits="userSpaceOnUse">
      <stop stop-color="#043374"/>
      <stop offset="1" stop-color="#0DE0F5"/>
    </linearGradient>
    <linearGradient id="paint4_linear_194_1010" x1="506.714" y1="239.168" x2="491.362" y2="165.513" gradientUnits="userSpaceOnUse">
      <stop stop-color="#043374"/>
      <stop offset="1" stop-color="#0DE0F5"/>
    </linearGradient>
    <linearGradient id="paint5_linear_194_1010" x1="478.124" y1="339.063" x2="400.523" y2="284.433" gradientUnits="userSpaceOnUse">
      <stop stop-color="#0996BD"/>
      <stop offset="0.829959" stop-color="#043374"/>
    </linearGradient>
    <linearGradient id="paint6_linear_194_1010" x1="148" y1="336" x2="76.5877" y2="292.56" gradientUnits="userSpaceOnUse">
      <stop offset="0.170041" stop-color="#043374"/>
      <stop offset="1" stop-color="#0996BD"/>
    </linearGradient>
    <linearGradient id="paint7_linear_194_1010" x1="130" y1="69" x2="158" y2="174" gradientUnits="userSpaceOnUse">
      <stop stop-color="#0DE0F5"/>
      <stop offset="1" stop-color="#0776A6"/>
    </linearGradient>
    <linearGradient id="paint8_linear_194_1010" x1="351" y1="354.5" x2="379.689" y2="348.873" gradientUnits="userSpaceOnUse">
      <stop offset="0.170041" stop-color="#043374"/>
      <stop offset="1" stop-color="#066095"/>
    </linearGradient>
    <linearGradient id="paint9_linear_194_1010" x1="158" y1="271" x2="161" y2="323.5" gradientUnits="userSpaceOnUse">
      <stop stop-color="#065990"/>
      <stop offset="1" stop-color="#043374"/>
    </linearGradient>
    <linearGradient id="paint10_linear_194_1010" x1="321.025" y1="125.5" x2="321.025" y2="233.5" gradientUnits="userSpaceOnUse">
      <stop stop-color="#034A7D"/>
      <stop offset="1" stop-color="#035485"/>
    </linearGradient>
    <linearGradient id="paint11_linear_194_1010" x1="168" y1="208" x2="157.25" y2="262.9" gradientUnits="userSpaceOnUse">
      <stop offset="0.37354" stop-color="#054682"/>
      <stop offset="0.863111" stop-color="#043374"/>
    </linearGradient>
    <linearGradient id="paint12_linear_194_1010" x1="278" y1="216.5" x2="277.742" y2="427.856" gradientUnits="userSpaceOnUse">
      <stop stop-color="#035183"/>
      <stop offset="0.177763" stop-color="#03598A"/>
      <stop offset="0.192909" stop-color="#0C6695"/>
      <stop offset="0.370904" stop-color="#3EB0D3"/>
      <stop offset="0.674011" stop-color="#16528E"/>
      <stop offset="0.738696" stop-color="#043374"/>
    </linearGradient>
    <linearGradient id="paint13_linear_194_1010" x1="312" y1="151" x2="287.952" y2="338" gradientUnits="userSpaceOnUse">
      <stop stop-color="#03497C"/>
      <stop offset="0.564187" stop-color="#0B5788"/>
      <stop offset="0.647879" stop-color="#3297C2"/>
      <stop offset="0.801537" stop-color="#62D3F8"/>
      <stop offset="1" stop-color="#227499"/>
    </linearGradient>
    <linearGradient id="paint14_linear_194_1010" x1="410.135" y1="335.484" x2="406.789" y2="345.557" gradientUnits="userSpaceOnUse">
      <stop stop-color="#0778A7"/>
      <stop offset="1" stop-color="#04407D"/>
    </linearGradient>
    <linearGradient id="paint15_linear_194_1010" x1="38.5" y1="157" x2="62" y2="229.5" gradientUnits="userSpaceOnUse">
      <stop stop-color="#0DE0F5"/>
      <stop offset="1" stop-color="#054B86"/>
    </linearGradient>
    <linearGradient id="paint16_linear_194_1010" x1="275.844" y1="495.8" x2="211.875" y2="501.55" gradientUnits="userSpaceOnUse">
      <stop stop-color="#002B4E"/>
      <stop offset="1" stop-color="#0063B4"/>
    </linearGradient>
    <linearGradient id="paint17_linear_194_1010" x1="66.2376" y1="526.894" x2="21.1155" y2="483.398" gradientUnits="userSpaceOnUse">
      <stop offset="0.170041" stop-color="#043374"/>
      <stop offset="1" stop-color="#0996BD"/>
    </linearGradient>
    <linearGradient id="paint18_linear_194_1010" x1="145" y1="511.999" x2="97.816" y2="486.844" gradientUnits="userSpaceOnUse">
      <stop offset="0.170041" stop-color="#043374"/>
      <stop offset="1" stop-color="#0996BD"/>
    </linearGradient>
    <linearGradient id="paint19_linear_194_1010" x1="403" y1="492.499" x2="373.438" y2="510.571" gradientUnits="userSpaceOnUse">
      <stop stop-color="#0996BD"/>
      <stop offset="0.829959" stop-color="#043374"/>
    </linearGradient>
    <linearGradient id="paint20_linear_194_1010" x1="497.5" y1="457.499" x2="459.649" y2="543.481" gradientUnits="userSpaceOnUse">
      <stop stop-color="#0996BD"/>
      <stop offset="0.829959" stop-color="#043374"/>
    </linearGradient>
  </defs>
</svg>
