<svg xmlns="http://www.w3.org/2000/svg" width="503" height="430" viewBox="0 0 503 430" fill="none">
  <path d="M137.9 6.19997C125.1 12.7 122.7 14.2 115 20.2C105.5 27.7 94.8004 39.7 88.0004 50.5C83.2004 58.1 76.3004 72.8 75.1004 78C74.8004 79.4 73.8004 83.4 73.0004 87C72.0004 91.1 71.5004 98.6 71.4004 107.6C71.4004 131 76.8004 151 88.1004 168.9C90.0004 171.8 91.75 176 91.75 176C91.75 176 83.4004 167.8 78.0004 160.1C63.5004 139.5 56.1004 118.1 56.0004 96.5C55.9004 83 57.5335 76.4683 61.2525 61.7C61.5578 60.4875 63.6004 55 63.6004 55C63.6004 55 58.9434 58.9299 56.2004 61.7C41.7805 76.2617 34.4004 92.4 31.5004 108C30.8004 111.6 29.8004 116.4 29.3004 118.7C28.8004 121 28.4004 130 28.4004 138.7C28.4004 157.7 31.0004 171.1 37.2004 184.2C40.9004 192.3 48.7004 205.1 51.5004 208C52.3004 208.8 55.1004 212.1 57.8004 215.3C67.1004 226.3 86.3004 240 104.7 248.8C123.9 258 133.1 262 134.7 262C135.4 262 136.6 260.3 137.3 258.2C138.5 254.6 139.7 251.7 143.1 244.2C144 242.2 146.7 237.5 149.1 233.9C151.5 230.3 153.4 227 153.4 226.7C153.4 226.5 151.5 224.3 149.1 221.9C124.3 196.4 107.9 166.8 102.5 137.4C100.9 128.6 101.1 96.3 102.9 86C108.4 54 117.841 36.35 137.6 10.7C140.917 6.39436 146.5 0 146.5 0C146.5 0 141.2 4.49997 137.9 6.19997ZM53 156C58.4092 167.448 61.6576 173.884 69 184.2C80.7217 200.668 90.7616 207.415 105.5 220.9C110.282 225.275 118.1 231.7 118.1 231.7C118.1 231.7 102.424 221.488 91.75 212.5C70.531 194.632 60.9749 183.701 51.5 159.5C48.1696 150.993 45.1004 137 45.1004 137C45.1004 137 49.5671 148.734 53 156Z" fill="url(#paint0_linear_194_1010)"/>
  <path d="M366.1 7.79996C385.453 30.2546 397.5 51.7999 401.4 74.9999C406.7 106.2 408.065 118.762 401.5 145.5C396.065 167.64 388.4 182.4 376.6 198.3C372.2 204.2 362.9 214.3 354.5 222.4C330.8 245.3 318.5 258 316.8 261.2C315.9 262.9 314.4 265.1 313.5 266.1C311.4 268.4 304.2 282.9 301.6 290C299.8 295 298.6 299.5 296.9 307.3C295.6 313.6 294.7 328.8 295.4 333C296.1 337.4 296.2 337.4 296.3 331.1C296.3 327.5 296.8 323.3 297.4 321.6C297.9 319.9 299 315.4 299.9 311.7C302 302.3 306 294.4 315.5 280.5C318.3 276.4 321 272.7 321.5 272.4C322 272.1 323.6 270 325 267.8C328.7 262.1 350.1 240.3 360.8 231.5C365.8 227.4 376.4 219.6 384.4 214.2C410.4 196.7 420 188.6 429.2 176.5C431.7 173.2 435 168.9 436.5 167C438 165.1 440.6 161 442.2 158C443.8 155 446 150.9 447.1 149C449.5 144.7 454.8 130.4 456.3 123.7C458.5 114.2 458.8 102 456.9 93.0999C456 88.3999 454.8 83.6999 454.4 82.5999C454 81.3999 453.1 78.6999 452.4 76.4999C451.8 74.1999 450.3 71.2999 449.2 69.9999C447.6 67.8999 447.3 67.7999 447.9 69.4999C450.4 76.9999 451.6 88.4 451.1 101C450.7 112.8 450.3 115.7 447.5 123.8C444.5 132.6 440.2 141.5 436.2 147.2C435.2 148.6 434.4 150.1 434.4 150.5C434.4 150.9 431.7 155.1 428.5 159.8C422.3 168.8 416.9 174.8 415.8 173.8C415.2 173.1 416.5 170.7 421.9 162C425.9 155.7 431.8 138.5 434 126.6C436.5 113.8 435.5 89.2999 431.9 77.4999C425.1 54.6999 412.637 35.2745 389.9 18.3999C379.852 10.9422 361.8 2.99994 361.8 2.99994C361.8 2.99994 364.457 5.8936 366.1 7.79996Z" fill="url(#paint1_linear_194_1010)"/>
  <path d="M290.001 54.5C288.861 57.877 287.701 58.6 285.101 62.2C281.701 66.8 269.701 74.3 261.901 76.7C258.101 77.9 251.501 79.4 247.401 80C225.201 83.5 218.401 86.1 211.101 93.9C206.801 98.5 204.501 104.5 204.401 111.3C204.301 112.5 203.701 114.6 203.001 115.9C202.301 117.2 201.701 119.9 202.001 121C202.501 122.9 200.901 125 199.201 125C198.701 125 198.601 124 199.001 122.7C199.205 121.95 201.548 119.876 202.501 118.5C202.922 117.892 203.001 115.9 203.001 115.9C203.001 115.9 198.273 121.73 196.901 123C190.701 128.7 188.701 137.8 192.001 145.6L193.601 149.4L195.401 145.7C198.201 140.1 202.401 137 211.301 134.1C215.901 132.6 234.901 132.7 239.301 134.2C257.701 140.5 260.701 158.8 245.901 174.2C239.901 180.4 232.901 185.6 216.801 195.4C195.601 208.4 194.601 209.1 184.301 218.3C163.701 236.7 152.601 259 150.701 286C149.901 296.3 151.501 304.5 151.501 304.5C151.501 304.5 152.701 301.5 153.401 299C154.101 296.5 155.101 294.1 155.601 293.6C156.001 293 156.401 292 156.401 291.2C156.401 289.5 166.701 268.9 169.401 265C170.501 263.4 171.401 261.9 171.401 261.5C171.401 260.6 176.701 252.9 182.301 245.6C187.901 238.3 209.301 218 209.301 218C209.301 218 210.601 219.3 207.901 222.2C205.501 224.8 200.401 231.7 192.401 243.2C187.601 250.1 178.101 267.8 175.901 274C170.001 290.5 167.301 311.9 169.301 326.3C171.201 340.7 173.201 349.5 176.101 356.8C189.001 389.1 211.901 413.6 240.801 425.9C248.21 429.066 253.464 429.668 253.464 429.668C253.464 429.668 251.579 427.754 250.401 426.5C239.397 414.787 226.501 397.9 226.501 393C226.501 391.4 228.901 393 230.101 395C234.101 401.3 264.501 419.4 276.401 422.5C277.801 422.8 280.501 423.6 282.401 424.1C296.801 427.9 316.701 428.5 326.501 426L335.001 423.5L323.501 424C317.101 423.9 311.301 424.1 299.601 421.3C298.401 421 297.101 420.4 296.801 419.9C296.501 419.4 295.601 419 294.701 419C290.501 419 266.301 405.3 257.901 398.1C256.201 396.7 253.601 394.6 252.001 393.5C246.401 389.5 229.901 370.2 222.501 359C206.001 334.2 199.501 315.4 199.401 292.9C199.401 268.3 208.1 241.1 225.5 218C232.3 208.9 246.701 195.5 246.701 195.5L241.501 205C241.501 205 236.301 213.1 231.101 222C221.401 238.8 216.201 252.7 212.301 272.5C210.701 280.4 210.701 304.1 212.301 311C214.801 322.5 215.701 325.7 217.601 331.5C220.201 339 224.101 345.6 224.101 345.6C224.101 345.6 223.578 342.985 223.301 341.3C220.836 326.346 224.101 302.5 224.101 302.5C224.101 302.5 225.414 308.029 226.501 311.5C230.801 325.234 235.318 332.325 243.301 344.3C259.162 368.093 278.601 384.7 296.701 394.4C300.401 396.4 303.401 397 303.401 397C303.401 397 299.712 394.191 297.501 392.5C290.584 387.209 289.001 383.8 282.501 376.5C275.101 368.1 262.001 348.4 256.201 336.9C246.201 316.7 242.401 300.7 242.401 278C242.401 261.3 244.001 250.7 248.501 237.6C251.701 228.5 260.001 210.4 265.001 202C269.001 195.1 271.101 191.1 274.201 184C280.701 169.1 281.001 152.9 281.001 152.9L281.251 143C281.251 143 282.401 146 282.401 147C282.401 148 282.901 149.2 283.401 149.5C284.601 150.3 284.701 172.6 283.501 176.6C283.001 178.2 282.001 181.5 281.301 184C280.601 186.5 278.801 191.3 277.201 194.8C275.701 198.2 274.401 201.3 274.401 201.6C274.401 201.8 272.901 205.3 271.001 209.3C258.201 236.5 255.901 245.8 255.901 269C256.001 284.8 256.701 289.3 261.401 304.1C263.701 311.2 276.5 336 277.5 337.5C277 336.5 273.201 324.8 272.601 320.8C270.301 306.1 269.201 278.7 270.401 266.3C272.201 246.5 274.701 237 282.601 220C294.601 194.2 298.701 181.9 300.001 167.2C300.43 162.797 300.501 158 300.501 158C300.501 158 303.182 161.997 304.201 165.1C306.101 171 306.401 194.6 304.601 202C302.701 209.5 299.601 217.9 297.301 221.6C295.201 225.1 294.901 226.4 296.501 225.4C298.001 224.5 309.501 206.6 311.801 201.7C312.701 199.7 314.701 194.3 316.201 189.7C318.501 182.6 318.801 179.8 318.901 169C318.901 158.4 318.501 155.5 316.501 150C314.001 143 311.042 135.949 306.001 127.5C305.241 126.226 304.001 124.4 304.001 124.4C304.001 124.4 307.407 125.813 309.501 126.9C311.302 127.835 314 129.5 314 129.5C314 129.5 309.264 125.065 306 122.5C297.537 115.85 291.925 113.638 282.201 108.6C280.027 107.474 276.635 105.717 276.635 105.717C276.635 105.717 285.429 105.009 290.901 103.7C298.209 101.951 305.201 101.1 308.901 96.9L310.901 94.7L308.901 95.4C303.401 97.6 299.643 97.6682 293.601 97.7C289.047 97.7239 282.001 96.5 282.001 96.5L289.001 94.5C289.001 94.5 307.546 91.1038 315.901 83.4C319.703 79.8939 324.101 73 324.101 73C324.101 73 321.141 74.5781 319.201 75.5C311.66 79.0827 307.262 81.296 299.001 82.5C294.553 83.1483 292.006 83.3288 287.501 83.5C283.989 83.6335 278.501 83.5 278.501 83.5C278.501 83.5 282.563 79.8457 284.701 77.1C290.847 69.2046 296.461 62.5265 293.401 53C292.734 50.9246 291.001 47.9601 291.001 47.9601C291.001 47.9601 290.828 52.0522 290.001 54.5ZM260.401 88C260.401 88 251.801 95.8 240.901 99C233.258 101.357 231.001 102.171 231.001 102.171C231.001 102.171 232.677 102.901 233.201 103.3C236.345 105.697 235.001 113 230.301 113C227.801 113 226.023 111.76 225.501 109.5C225.323 108.73 226.907 106.736 228.383 105.5C229.969 104.173 231.319 104.159 233.201 103.3C233.123 103.183 233.001 103 233.001 103L231.001 102.171C231.001 102.171 226.682 103.701 224.001 106C219.993 109.437 217.545 114.746 215.301 117.5C213.633 119.546 211.154 122.839 211.154 122.839C211.154 122.839 210.386 122.008 210.001 121.4C207.387 117.277 211.237 113.725 213.501 109.4C219.572 97.7987 237.001 94.5 237.001 94.5C237.001 94.5 247.658 91.3097 251.001 90.5C254.693 89.6058 260.401 88 260.401 88ZM243.901 102.9C243.901 102.9 242 111.884 237.701 115C234.386 117.402 231.693 117.74 227.601 117.8C225.197 117.835 221.501 116.975 221.501 116.975C221.501 116.975 220.65 116.525 220.501 116C220.332 115.406 221.001 114.5 221.001 114.5L223.001 115C223.001 115 230.318 116.72 234.001 114.5C236.251 113.144 237.093 111.718 238.501 109.5C240.146 106.908 241.344 102.171 241.344 102.171L243.901 102.9Z" fill="url(#paint2_linear_194_1010)"/>
  <path d="M459.8 77.5C463.1 86.1 466.3 97.4 466.8 102C467.2 105 467.9 110 468.4 113C470.4 124 470.6 127.9 469.4 132.8C468.8 135.5 468.2 140.5 468 143.9C467.9 147.6 467.3 150.4 466.6 150.9C465.9 151.3 465.6 152.4 466 153.4C466.4 154.5 466 155.6 464.9 156.4C463.8 157.2 463.3 158.4 463.7 159.3C464 160.2 463.9 161 463.5 161.2C463 161.4 461 165.3 459 169.9C455.2 178.9 449.1 188.9 443.7 195.4C441.9 197.5 440.7 199.8 441.1 200.4C441.4 201 441.4 201.2 440.9 200.8C440.5 200.4 437.5 202.5 434.3 205.5C428.3 211 417.2 219.5 409.7 224.5C407.3 226 405.4 227.6 405.4 228C405.4 228.4 404.1 229 402.4 229.3C400.8 229.7 399.4 230.6 399.4 231.3C399.4 232.7 390.6 237.9 387 238.6C385.9 238.8 384.6 239.7 384.1 240.5C383.7 241.3 382.9 241.8 382.5 241.5C382 241.3 381.1 241.7 380.4 242.5C379.7 243.3 378.6 244 377.8 244C377.1 244 376.1 244.6 375.7 245.4C375.3 246.2 370.9 249.5 365.9 252.8C353 261.5 349.2 264.2 346.5 266.7C345.2 267.9 342.7 269.6 340.9 270.4C337.7 272 322.4 287.9 321.2 291C320.9 291.9 319.2 293.8 317.4 295.2C315.7 296.5 314.2 298.3 314 299.1C313.9 299.9 312.5 302.7 311 305.3C309.4 307.9 308.4 310.3 308.6 310.6C308.9 310.8 311.8 308 315 304.3C318.2 300.5 321.8 296.7 322.9 295.7C324 294.7 326.5 292.4 328.4 290.7C336.9 282.9 355.1 270.3 366.9 264C370.8 262 375.6 259.3 377.7 258.2C379.8 257 382.1 256 382.9 256C383.7 256 384.4 255.7 384.4 255.2C384.4 254.8 387.2 253.4 390.7 252.2C430.3 237.4 460.3 209.6 471.4 177.4C473.1 172.5 474.9 167.6 475.4 166.5C477.6 161.5 479.1 133.2 477.6 125.2C477 122.1 475.9 116.3 475.3 112.5C473.8 103.2 469.9 91.9 465.7 84.3C462.2 78 458.2 73.4 459.8 77.5Z" fill="#ECECEC"/>
  <path d="M6.19961 136.2C3.09961 146.3 2.09961 153.6 2.09961 166.5C2.09961 182.3 4.99961 195.9 10.3996 205.5C16.9996 217 19.9996 221.3 25.7996 227.2C31.8996 233.5 54.2 247 54.2 247C54.2 247 46.7996 240.9 44.7996 237.9C38.2996 228.3 30.6996 211.2 21.1996 185.5C16.5996 172.9 9.39961 141.7 9.39961 134.3C9.39961 132.156 9.2 123.5 9.2 123.5C9.2 123.5 7.21199 132.882 6.19961 136.2Z" fill="url(#paint3_linear_194_1010)"/>
  <path d="M494.5 141C494.5 141 494.157 150.166 493.5 156C492.523 164.678 489.5 178 489.5 178C489.5 178 486.234 189.113 483.5 196C480.31 204.037 478.165 208.422 474 216C468.913 225.256 464.81 229.69 459.3 238.7C458.158 240.568 456.4 243.5 456.4 243.5C456.4 243.5 470.29 234.778 477.5 227.3C494.088 210.096 501.026 195.259 502.4 171.4C503.347 154.968 494.5 130 494.5 130V141Z" fill="url(#paint4_linear_194_1010)"/>
  <path d="M491.9 239.1C485.144 245.381 472.5 253.5 472.5 253.5C472.5 253.5 470.684 254.737 469.5 255.5C451.695 266.974 439.217 270.059 418.3 273.4C412.751 274.286 404 275 404 275C404 275 408.644 272.202 411.4 270.1C417.088 265.763 424.3 257.1 424.3 257.1C424.3 257.1 418.084 259.65 414 261C408.02 262.978 414.5 260.9 398.4 265.1C396.5 265.6 390.6 266.9 385.4 268C374.3 270.3 369.49 270.629 360.3 275C349.989 279.905 336.8 292.4 336.8 292.4C336.8 292.4 329.6 300.9 326.1 308.2C323.5 313.6 321.4 318.7 321.4 319.5C321.4 320.3 321 321.8 320.5 322.8C319.2 325.3 317.4 340.5 317.4 348.6C317.5 355.7 317.118 365.707 321.2 375.5C325.514 385.847 328.344 394.328 338.9 398.1C344.427 400.075 348.884 402.045 353.9 399C354.376 398.711 355.078 398.195 355.078 398.195C355.078 398.195 352.456 397.424 351 396.5C347.861 394.508 346.799 392.245 345.4 388.8C344.968 387.736 344.5 386 344.5 386C344.5 386 352.939 388.401 358.5 388.8C370.257 389.644 374.8 388.8 388.1 382.9C390.5 381.8 396 379 396 379L399.8 376.5C399.8 376.5 390.4 379.8 386.7 379.9C370.2 380.5 356.4 375.5 342.1 363.7C337.181 359.613 335.25 354.6 335.25 354.6C335.25 354.6 337.041 355.409 338.2 355.9C354.884 362.973 370.8 364.9 383.7 365C391.8 365 403.7 362.7 409.6 360L413.9 358C413.9 358 409.335 358.436 406.4 358.5C396.918 358.706 382.3 355.5 382.3 355.5L392.1 353.9C392.1 353.9 421.108 350.5 433.5 338.5C436.787 335.317 441 329.5 441 329.5C441 329.5 433.924 333.26 424.4 335.1C418.1 336.3 373.7 337.8 362.2 337.2C357.189 336.915 352.7 335.5 352.7 335.5C352.7 335.5 360.931 330.847 366.5 328.5C373.123 325.709 377.102 324.82 384 322.8C396.891 319.025 404.64 318.88 417.5 315C434.434 309.891 439.657 310.151 452 303C457.7 299.697 463.471 295.362 465.8 293.3C477.161 283.245 488.4 261.7 488.4 261.7C488.4 261.7 490.273 258.458 491 256.5C493.799 248.963 494.811 247.559 496 241.5C496.569 238.6 497 234 497 234C497 234 493.963 237.182 491.9 239.1ZM456.4 279.9C456.4 279.9 443.655 290.523 434 294.5C420.318 300.136 393 300 393 300C393 300 401.019 298.1 404 297.5C408.658 296.562 411.339 296.423 416 295.5C420.321 294.645 422.757 294.186 427 293C433.604 291.155 437.276 289.875 443.5 287C448.72 284.588 456.4 279.9 456.4 279.9Z" fill="url(#paint5_linear_194_1010)"/>
  <path d="M10.4004 238.1C11.8666 250.23 15.3004 256.1 21.1004 267.5C27.5004 280.2 36.3345 292.409 50.5 304C59.365 311.253 65.0956 314.499 75.4004 319.5C83.7192 323.537 88.6907 325.189 97.5 328C105.423 330.528 118.1 333.4 118.1 333.4C118.1 333.4 114.317 335.027 111.8 335.8C98.1829 339.985 75.4004 333.4 75.4004 333.4L71.9004 332.7C71.9004 332.7 70.8004 331.4 74.9004 336.1C79.0004 340.8 85 346.5 92.4004 350.1C97.5964 352.628 101.103 353.759 107 354C110.606 354.147 116.2 353.141 116.2 353.141C116.2 353.141 113.863 355.362 112.1 356.4C108.915 358.275 105.5 359 103 359C99.9586 359 94.4004 358.1 94.4004 358.1C94.4004 358.1 98.7211 360.747 101.7 362C108.372 364.807 110 365.2 119.9 365.5C126 365.7 132 366 132 366C132 366 132.901 370.4 126.2 373.7C119.5 377 107.5 375 107.5 375C107.5 375 112.427 379.917 116.2 382.2C125.528 387.843 132.9 387 143.7 387C151.1 387 151.4 389.3 151.4 389.3C151.4 389.3 151.769 391.267 151 392.5C150.076 393.982 147.5 396 147.5 396C147.5 396 150 396.5 158.7 390.7C159.832 389.945 161.4 388.5 161.4 388.5L154.3 378C150.5 372.2 146.4 365.5 145.2 363C139.9 351.2 138.5 348.1 136.7 342.5C135.5 339.2 134.1 334.4 133.5 331.7C132.9 329.1 131.8 324.9 131.2 322.2C129.8 317 129.4 284.3 130.7 277.3L131.4 273.1L122.7 270.4C117.8 269 111.4 267.1 108.4 266.4C105.4 265.6 102 264.6 100.9 264.1C99.8004 263.6 97.3004 262.7 95.4004 262C93.5004 261.3 92.0664 260.729 89.9004 260C86.3518 258.805 80.7004 257.3 80.7004 257.3C80.7004 257.3 89.4652 266.715 96.1004 271.5C97.798 272.724 100.542 274.5 100.542 274.5C100.542 274.5 90.9006 273.959 84.8004 273C66.5103 270.123 53.3004 264.8 40.1004 257.2C34.0004 253.6 22.7639 248.438 14.7004 239.4C12.7393 237.202 10 233.5 10 233.5C10 233.5 10.184 236.31 10.4004 238.1ZM46.5 269.5C49.2946 270.964 51.3606 272.5 51.3606 272.5C51.3606 272.5 50.2199 272.219 49.5 272C48.9092 271.82 48.5733 271.729 48 271.5C47.1892 271.176 46.7523 270.943 46 270.5C45.3935 270.143 45.048 269.942 44.5 269.5C43.8551 268.98 43.5858 268.586 43 268C42.4142 267.414 41.5 266.5 41.5 266.5C41.5 266.5 44.7155 268.565 46.5 269.5ZM53.2004 282C57.5 284.5 74 291.5 74 291.5L79 293.5C79 293.5 79.7157 293.766 83.5 295C84.9911 295.486 88.5 296.5 88.5 296.5C88.5 296.5 90.6344 297.104 92 297.5C94.5043 298.225 96.0996 298.6 98.5 299.5C100.9 300.4 103.5 301 103.5 301C103.5 301 98.6132 301.261 95.5 301C92.9407 300.785 91.5282 300.452 89 300C86.8437 299.615 85.2276 299.298 83.5 298.9C82.3081 298.625 81.6737 298.344 80.5 298C79.136 297.6 78.3467 297.455 77 297C75.2414 296.405 73.6004 295.6 72.6004 295.2C61 290 63.5 291.5 53.2004 284.5C49.4307 281.754 48.4004 279.239 48.4004 279.239C48.4004 279.239 50.8727 280.646 53.2004 282Z" fill="url(#paint6_linear_194_1010)"/>
  <path d="M79.7324 154C83.4671 163.046 91.7324 176 91.7324 176C91.7324 176 85.5932 156.015 83.2324 141.5C81.4592 130.598 81.0796 122.04 80.7324 111C80.4372 101.614 80.3954 96.2094 82.2324 87C84.2606 76.8319 86.8142 71.3993 91.222 62.0221L91.2324 62C96.6034 50.5736 100.305 44.3265 108.232 34.5C114.042 27.2994 117.91 23.7495 124.732 17.5C132.827 10.0844 146.732 0 146.732 0C146.732 0 130.215 7.43754 120.732 14C113.886 18.7378 110.15 21.6437 104.232 27.5C96.6243 35.0293 92.9143 39.9287 87.2324 49C81.8088 57.6589 79.1336 62.8655 75.7324 72.5C72.0732 82.8651 70.3735 89.0266 69.7324 100C69.1148 110.571 70.1664 116.614 72.2324 127L72.3341 127.511C74.4269 138.034 75.6223 144.045 79.7324 154Z" fill="url(#paint7_linear_194_1010)"/>
  <path d="M370.305 377.225C381.512 379.894 399.796 376.493 399.796 376.493C399.796 376.493 389.738 380.698 382.926 381.913L382.79 381.937C375.181 383.295 370.503 384.13 362.932 382.41C353.788 380.333 347.991 377.74 342.128 370.423C337.91 365.16 335.232 354.589 335.232 354.589C335.232 354.589 341.722 363.323 347.732 367.5C355.262 372.733 361.386 375.101 370.305 377.225Z" fill="url(#paint8_linear_194_1010)"/>
  <path d="M444.232 65C442.631 59.8718 439.732 52 439.732 52L444.232 56.5L450.732 65L456.232 77.5L459.232 90.5L461.232 107.5L458.732 124.5L451.232 146L441.232 163.5L430.232 179L418.232 191L401.232 205L381.732 217.5L361.232 232.5L344.732 247.5L332.732 260.5L323.232 271.5L313.232 284.5L305.232 299L299.732 314.5L297.232 326L295.232 344.5C295.232 344.5 293.851 334.469 293.732 328C293.639 322.92 293.723 320.055 294.232 315C294.809 309.283 295.419 306.094 296.732 300.5C297.99 295.147 298.91 292.188 300.732 287L300.893 286.542C303.114 280.219 304.426 276.483 307.732 270.5C311.191 264.242 313.8 261.111 318.232 255.5C323.289 249.099 326.507 245.81 332.232 240C338.926 233.208 342.863 229.552 350.232 223.5C357.355 217.65 361.733 214.858 369.232 209.5C376.769 204.116 381.285 201.506 388.732 196C395.108 191.286 398.767 188.724 404.732 183.5C409.408 179.406 411.975 177.028 416.232 172.5C419.932 168.566 422.105 166.403 425.232 162C428.122 157.932 429.179 155.287 431.732 151C434.063 147.087 435.581 145.014 437.732 141C440.373 136.072 441.672 133.198 443.732 128C445.257 124.154 446.193 122.005 447.232 118C448.571 112.841 448.85 109.816 449.232 104.5C449.584 99.6104 449.461 96.7717 449.255 92.0157L449.232 91.5C449.03 86.8018 449.009 84.138 448.232 79.5C447.263 73.7065 445.983 70.6072 444.232 65Z" fill="#39C1FF"/>
  <path d="M451.23 65.5L439.73 53C439.73 53 447.432 59.3164 451.73 64C455.112 67.6845 456.792 69.9531 459.73 74C462.881 78.3387 464.72 80.7622 467.23 85.5C470.184 91.0749 471.386 94.4664 473.23 100.5C475.156 106.799 475.659 110.501 476.73 117C477.818 123.596 478.42 127.323 478.73 134C479.057 141.025 478.831 144.994 478.23 152C477.827 156.705 477.795 159.399 476.73 164C475.756 168.211 474.688 170.431 473.23 174.5C471.249 180.03 470.327 183.231 467.73 188.5C464.354 195.351 461.779 198.864 457.23 205C453.598 209.901 451.439 212.584 447.23 217C441.503 223.011 437.852 225.991 431.23 231C424.017 236.457 419.643 239.117 411.73 243.5C401.793 249.005 395.418 250.472 385.23 255.5C375.909 260.1 370.134 262.502 361.73 268C356.6 271.357 354.239 272.401 349.73 275.5C341.73 281 338.447 283.335 331.73 289C326.66 293.276 323.73 295.626 319.23 300.5C315.652 304.377 313.822 306.725 310.73 311C307.079 316.048 304.771 318.811 302.23 324.5C300.468 328.447 298.73 335 298.73 335L297.855 337.875L296.98 340.75L295.23 346.5L296.23 338.5V332L299.23 319L303.23 305L314.23 285L325.23 275L339.73 262L355.73 250.5L379.73 237.5L410.73 220.5L436.23 201L451.23 181.5L463.23 153L467.73 127L465.23 106L461.73 92L456.73 76.5L451.23 65.5Z" fill="#2ACA90"/>
  <path d="M446.23 60.5L439.73 53L445.73 58.5L450.73 64C450.73 64 453.36 67.225 454.73 69.5C456.398 72.2687 456.953 74.031 458.23 77C459.721 80.4641 460.465 82.4476 461.73 86C463.243 90.2465 464.118 92.6314 465.23 97C466.213 100.859 466.58 103.071 467.23 107C468.001 111.659 468.302 114.297 468.73 119C468.979 121.729 469.03 123.259 469.03 126C469.03 128.741 468.954 130.268 468.73 133C468.266 138.674 468.385 141.925 467.23 147.5C466.175 152.597 465.128 155.408 463.342 160.202L463.23 160.5C461.521 165.089 460.226 167.528 458.23 172C456.13 176.708 455.213 179.482 452.73 184C450.149 188.699 448.15 191.371 444.73 195.5C441.912 198.903 440.418 200.441 437.23 203.5C433.042 207.52 430.642 209.725 426.23 213.5C422.222 216.93 420.101 218.545 415.73 221.5C412.179 223.901 409.996 225.45 406.23 227.5C401.245 230.214 398.284 232.915 393.23 235.5C388.721 237.807 385.766 239.744 381.23 242C377.164 244.023 374.289 246.962 370.23 249C366.484 250.881 364.84 252.868 361.23 255C358.432 256.652 357.923 257.18 355.23 259C351.639 261.428 351.235 262.448 347.73 265C344.794 267.138 343.108 268.784 340.23 271C337.041 273.456 332.23 278.5 332.23 278.5C332.23 278.5 329.355 281.135 327.23 283.5C324.456 286.588 322.42 288.838 319.73 292C317.754 294.323 315.23 297.5 315.23 297.5C315.23 297.5 312.409 301.408 310.73 304C308.874 306.867 308.239 307.935 306.73 311C305.338 313.83 304.389 315.566 303.23 318.5C301.845 322.008 300.88 323.908 299.73 327.5C298.806 330.387 298.457 332.057 297.73 335C296.629 339.462 295.23 346.5 295.23 346.5L296.23 331.5L299.23 316.5L305.73 300L313.23 287.5L331.23 268.5L355.23 250.5L380.73 237.5L404.73 225L422.23 212.5L435.73 201.5L448.23 186L458.23 165L464.23 146L466.73 133V119L463.23 97L459.73 85.5L456.73 77L454.23 71L451.73 67L446.23 60.5Z" fill="#F05252"/>
  <path d="M445.731 60L439.732 53C439.732 53 444.238 58.7492 446.731 63C447.748 64.734 449.365 66.6856 450.231 68.5C451.137 70.398 451.495 71.0299 452.231 73C453.808 77.223 454.549 79.6497 455.731 84C456.886 88.2512 457.661 90.6316 458.231 95C458.585 97.7176 458.833 99.2611 458.931 102C459.028 104.732 459.346 105.769 459.231 108.5C458.948 115.204 458.34 119.485 456.731 126C455.398 131.395 454.302 134.843 452.231 140C449.888 145.835 448.458 148.603 445.231 154C442.144 159.163 440.92 162.249 437.231 167C433.321 172.035 430.988 175.254 426.731 180C422.397 184.832 420.655 187.271 415.731 191.5C410.84 195.7 407.479 198.256 402.231 202C396.54 206.061 393.913 207.926 388.231 212C382.199 216.325 377.639 218.506 371.731 223C366.537 226.951 363.771 229.354 358.731 233.5C355.198 236.407 353.584 237.888 350.231 241C346.283 244.664 343.405 247.06 339.731 251C335.584 255.448 334.173 256.869 330.231 261.5C327.622 264.565 325.226 267.341 322.731 270.5C319.535 274.545 318.271 276.337 315.231 280.5C312.835 283.781 311.754 284.977 309.731 288.5C307.598 292.214 306.38 294.048 304.731 298C303.279 301.48 301.898 304.414 300.731 308C299.544 311.648 298.934 313.729 298.231 317.5C297.654 320.595 297.017 321.865 296.731 325C296.322 329.477 295.798 332.005 295.731 336.5C295.697 338.843 295.031 342.5 295.031 342.5L295.232 346.5L296.232 333.5L299.731 322L303.231 310.5L308.731 298L314.731 287.5L323.731 274L339.731 257L357.231 242L382.231 223.5L402.731 206.5L420.231 192L435.231 176L444.731 164L452.231 150L458.231 136L460.232 123.5L461.231 112V102L460.232 95L458.731 85L456.231 76.5L452.731 70L450.231 65L445.731 60Z" fill="#F05252"/>
  <path d="M454.73 71C451.753 64.5457 439.73 53 439.73 53C439.73 53 450.068 65.1835 452.23 71C454.362 76.7324 455.659 80.1068 457.232 86.0169C458.779 91.8298 459.301 95.0001 459.73 101C460.177 107.26 460.167 110.795 459.23 117C458.247 123.513 457.209 127.717 455.23 134C452.58 142.416 450.597 146.832 446.23 154.5C441.647 162.549 438.511 167.263 432.73 174.5C427.468 181.089 424.432 184.786 418.23 190.5C411.568 196.639 407.006 199.601 399.73 205C386.807 214.59 378.215 218.845 365.73 229C355.541 237.288 349.921 242.116 340.73 251.5C331.528 260.897 327.203 266.539 319.23 277C315.158 282.344 313.028 284.646 309.73 290.5C306.295 296.599 304.551 299.896 302.23 306.5C300.674 310.929 299.821 313.934 298.73 318.5C296.091 329.556 295.23 346.5 295.23 346.5C295.23 346.5 296.556 336.934 298.23 331C299.591 326.177 300.69 323.489 302.533 318.983L302.73 318.5C304.516 314.132 305.479 311.647 307.73 307.5C309.824 303.644 311.193 301.58 313.73 298C316.781 293.696 318.765 291.478 322.23 287.5C327.038 281.981 329.862 278.975 335.23 274C342.366 267.388 354.73 258.5 354.73 258.5C354.73 258.5 373.185 245.248 385.23 238.5C398.584 231.019 404.916 227.092 417.23 218L417.628 217.706C429.392 209.021 436.416 203.835 445.23 192C451.393 183.725 453.969 178.397 458.23 169C460.401 164.212 461.474 161.456 463.23 156.5C465.79 149.275 466.285 145.23 467.209 137.676L467.23 137.5C468.323 128.565 468.356 123.43 467.23 114.5C466.487 108.608 466.059 105.288 464.73 99.5C463.224 92.9377 461.644 89.4553 459.73 83C458.343 78.3197 456.775 75.4328 454.73 71Z" fill="white"/>
  <path d="M130.732 288.5C131.255 282.391 132.5 273 132.5 273L124.5 271C124.5 271 122.515 279.917 121.732 287C120.938 294.192 120.838 297.776 121.232 305C121.765 314.751 122.943 320.642 125.732 330C127.815 336.987 129.367 340.796 132.232 347.5C135.047 354.085 136.793 357.719 140.232 364C142.967 368.993 144.371 371.906 147.732 376.5C151.975 382.299 159.6 390 159.6 390L162.6 387.5C162.6 387.5 152.808 374.014 147.732 364.5C143.867 357.256 142.243 352.638 139.232 345C136.152 337.187 134.521 333.206 132.732 325C131.18 317.877 130.713 313.775 130.232 306.5C129.769 299.486 130.133 295.504 130.732 288.5Z" fill="url(#paint9_linear_194_1010)"/>
  <path d="M303.232 217.5C298.485 224.311 289.232 233.5 289.232 233.5C289.232 233.5 297.782 221.37 302.232 213C305.267 207.292 307.155 204.121 309.232 198C311.227 192.124 313.002 189.162 313.732 183C314.56 176.019 315.543 172.483 314.732 165.5C314.158 160.555 313.72 156.879 312.732 152C310.636 141.641 308.397 130.868 304.732 125.5C304.732 125.5 308.31 130.232 310.232 133.5C313.781 139.533 315.215 143.298 317.232 150C319.852 158.7 321.179 163.926 320.732 173C320.234 183.126 317.608 188.631 313.732 198C310.426 205.992 308.178 210.404 303.232 217.5Z" fill="url(#paint10_linear_194_1010)"/>
  <path d="M144.232 244C147.896 236.621 154.5 227 154.5 227L148.232 221C148.232 221 140.281 230.96 136.232 238.5C132.253 245.911 128 259.6 128 259.6L136 262.9C136 262.9 140.685 251.145 144.232 244Z" fill="url(#paint11_linear_194_1010)"/>
  <path d="M313.734 422.5C322.461 423.589 338.234 422.5 338.234 422.5C338.234 422.5 325.681 427.204 321.234 427.5C316.787 427.796 298.78 428.319 290.734 427C282.687 425.681 278.297 424.048 270.734 421C263.201 417.964 259.255 415.582 252.234 411.5C246.006 407.879 242.163 406.234 236.734 401.5C232.358 397.685 230.151 395.903 226.234 392C217.678 383.477 213.335 378.112 206.734 368C201.051 359.296 198.259 354.084 194.234 344.5C190.886 336.53 188.993 331.964 187.232 323.5C184.923 312.397 184.94 305.812 185.734 294.5C186.273 286.814 186.76 282.448 188.734 275C190.073 269.946 191.187 267.145 193.075 262.398L193.234 262C197.881 250.313 201.449 244.09 208.234 233.5C213.058 225.969 215.58 221.49 221.734 215C229.794 206.498 246.733 195.5 246.733 195.5C246.733 195.5 237.622 205.053 232.734 210.5C227.641 216.175 224.393 219.109 220.234 225.5C215.516 232.747 214.134 237.55 210.734 245.5C207.525 253.002 205.794 257.105 203.734 265C201.153 274.89 200.11 280.78 200.234 291C200.345 300.251 201.013 305.519 203.234 314.5C205.072 321.934 206.82 325.918 209.734 333C213.289 341.641 215.206 346.624 220.234 354.5C224.943 361.877 228.094 366.307 233.734 373C239.971 380.403 243.662 383.888 250.734 390.5C257.951 397.249 262.337 400.289 270.734 405.5C278.153 410.105 282.657 412.179 290.734 415.5C299.643 419.163 304.174 421.307 313.734 422.5Z" fill="url(#paint12_linear_194_1010)"/>
  <path d="M284.233 160.5C284.201 153.566 281.233 143 281.233 143C281.233 143 286.734 150.491 288.733 156C290.367 160.5 290.268 163.584 290.233 168.5C290.182 175.661 288.707 179.616 286.733 186.5C284.655 193.75 282.665 197.551 279.733 204.5C275.625 214.238 271.831 219.062 268.233 229C264.058 240.533 261.964 247.296 260.733 259.5C259.851 268.242 259.873 273.255 260.733 282C261.953 294.396 264.82 301.351 268.233 313C271.17 323.023 277.733 338 277.733 338C277.733 338 271.53 328.476 268.233 322C262.738 311.206 260.116 304.764 257.233 293C254.979 283.8 254.009 278.468 253.733 269C253.494 260.782 253.763 256.089 255.233 248C256.615 240.4 258.079 236.254 260.733 229C263.226 222.185 265.358 218.662 268.233 212C271.424 204.608 273.394 200.534 276.233 193C278.346 187.395 279.717 184.295 281.233 178.5C283.037 171.606 284.266 167.626 284.233 160.5Z" fill="url(#paint13_linear_194_1010)"/>
  <path d="M378.732 335.5H352.732C352.732 335.5 362.36 339.003 368.732 340.5C380.573 343.282 387.586 344.137 399.732 343.5C407.619 343.086 412.179 342.807 419.732 340.5C428.752 337.745 441.232 329.5 441.232 329.5C441.232 329.5 423.73 334.25 412.232 335.5C399.227 336.914 391.815 335.5 378.732 335.5Z" fill="url(#paint14_linear_194_1010)"/>
  <path d="M0.732046 153.5C1.96778 141.386 9.23205 123.5 9.23205 123.5C9.23205 123.5 5.06035 141.682 5.23205 153.5C5.38689 164.158 6.45217 170.21 9.23205 180.5C12.0878 191.071 13.3792 197.684 18.2322 207.5C22.8479 216.836 26.5125 221.543 33.232 229.5C40.1196 237.656 54.232 247 54.232 247C54.232 247 43.6235 243.071 37.732 239C31.4835 234.682 28.3284 231.632 23.2322 226C16.9693 219.079 13.3471 214.878 9.23205 206.5C5.47176 198.844 3.90386 193.864 2.23242 185.5C-0.223992 173.208 -0.540011 165.97 0.732046 153.5Z" fill="url(#paint15_linear_194_1010)"/>
  <defs>
    <linearGradient id="paint0_linear_194_1010" x1="121.5" y1="252" x2="91" y2="80" gradientUnits="userSpaceOnUse">
      <stop stop-color="#043374"/>
      <stop offset="1" stop-color="#0DE0F5"/>
    </linearGradient>
    <linearGradient id="paint1_linear_194_1010" x1="416.558" y1="323.381" x2="378.696" y2="104.378" gradientUnits="userSpaceOnUse">
      <stop stop-color="#043374"/>
      <stop offset="1" stop-color="#0DE0F5"/>
    </linearGradient>
    <linearGradient id="paint2_linear_194_1010" x1="242.739" y1="429.668" x2="242.739" y2="47.9601" gradientUnits="userSpaceOnUse">
      <stop offset="0.14728" stop-color="#043374"/>
      <stop offset="0.349101" stop-color="#67DBFF"/>
      <stop offset="0.460883" stop-color="#035A8B"/>
      <stop offset="0.995094" stop-color="#043C70"/>
    </linearGradient>
    <linearGradient id="paint3_linear_194_1010" x1="40.9038" y1="242.286" x2="24.7817" y2="161.894" gradientUnits="userSpaceOnUse">
      <stop stop-color="#043374"/>
      <stop offset="1" stop-color="#0DE0F5"/>
    </linearGradient>
    <linearGradient id="paint4_linear_194_1010" x1="490.714" y1="239.168" x2="475.362" y2="165.513" gradientUnits="userSpaceOnUse">
      <stop stop-color="#043374"/>
      <stop offset="1" stop-color="#0DE0F5"/>
    </linearGradient>
    <linearGradient id="paint5_linear_194_1010" x1="462.124" y1="339.063" x2="384.523" y2="284.433" gradientUnits="userSpaceOnUse">
      <stop stop-color="#0996BD"/>
      <stop offset="0.829959" stop-color="#043374"/>
    </linearGradient>
    <linearGradient id="paint6_linear_194_1010" x1="132" y1="336" x2="60.5877" y2="292.56" gradientUnits="userSpaceOnUse">
      <stop offset="0.170041" stop-color="#043374"/>
      <stop offset="1" stop-color="#0996BD"/>
    </linearGradient>
    <linearGradient id="paint7_linear_194_1010" x1="114" y1="69" x2="142" y2="174" gradientUnits="userSpaceOnUse">
      <stop stop-color="#0DE0F5"/>
      <stop offset="1" stop-color="#0776A6"/>
    </linearGradient>
    <linearGradient id="paint8_linear_194_1010" x1="335" y1="354.5" x2="363.689" y2="348.873" gradientUnits="userSpaceOnUse">
      <stop offset="0.170041" stop-color="#043374"/>
      <stop offset="1" stop-color="#066095"/>
    </linearGradient>
    <linearGradient id="paint9_linear_194_1010" x1="142" y1="271" x2="145" y2="323.5" gradientUnits="userSpaceOnUse">
      <stop stop-color="#065990"/>
      <stop offset="1" stop-color="#043374"/>
    </linearGradient>
    <linearGradient id="paint10_linear_194_1010" x1="305.025" y1="125.5" x2="305.025" y2="233.5" gradientUnits="userSpaceOnUse">
      <stop stop-color="#034A7D"/>
      <stop offset="1" stop-color="#035485"/>
    </linearGradient>
    <linearGradient id="paint11_linear_194_1010" x1="152" y1="208" x2="141.25" y2="262.9" gradientUnits="userSpaceOnUse">
      <stop offset="0.37354" stop-color="#054682"/>
      <stop offset="0.863111" stop-color="#043374"/>
    </linearGradient>
    <linearGradient id="paint12_linear_194_1010" x1="262" y1="216.5" x2="261.742" y2="427.856" gradientUnits="userSpaceOnUse">
      <stop stop-color="#035183"/>
      <stop offset="0.177763" stop-color="#03598A"/>
      <stop offset="0.192909" stop-color="#0C6695"/>
      <stop offset="0.370904" stop-color="#67DBFF"/>
      <stop offset="0.674011" stop-color="#16528E"/>
      <stop offset="0.738696" stop-color="#043374"/>
    </linearGradient>
    <linearGradient id="paint13_linear_194_1010" x1="296" y1="151" x2="271.952" y2="338" gradientUnits="userSpaceOnUse">
      <stop stop-color="#03497C"/>
      <stop offset="0.564187" stop-color="#0B5788"/>
      <stop offset="0.647879" stop-color="#3297C2"/>
      <stop offset="0.801537" stop-color="#62D3F8"/>
      <stop offset="1" stop-color="#227499"/>
    </linearGradient>
    <linearGradient id="paint14_linear_194_1010" x1="394.135" y1="335.484" x2="390.789" y2="345.557" gradientUnits="userSpaceOnUse">
      <stop stop-color="#0778A7"/>
      <stop offset="1" stop-color="#04407D"/>
    </linearGradient>
    <linearGradient id="paint15_linear_194_1010" x1="22.5" y1="157" x2="46" y2="229.5" gradientUnits="userSpaceOnUse">
      <stop stop-color="#0DE0F5"/>
      <stop offset="1" stop-color="#054B86"/>
    </linearGradient>
  </defs>
</svg>
